<svg width="284" height="78" viewBox="0 0 284 78" fill="none" xmlns="http://www.w3.org/2000/svg">
<path fill-rule="evenodd" clip-rule="evenodd" d="M269.723 45.8153V17.2551H197.901V45.8153H269.723Z" fill="#1A171B"/>
<path d="M269.722 45.8153V17.2551H197.901V45.8153H269.722Z" stroke="#1A171B" stroke-width="1.36858" stroke-miterlimit="22.9256"/>
<path fill-rule="evenodd" clip-rule="evenodd" d="M25.381 5.03796L25.4073 12.9973C23.6624 13.2092 21.9963 12.4953 20.7532 13.8967C20.5058 14.7919 20.39 15.7183 20.4096 16.6468L25.4073 16.5942V25.0299L20.4623 25.0559L20.489 46.5283L8.90658 46.502L8.87979 25.0299H4.88696V16.5942L8.90658 16.6468C8.77435 12.4158 9.80562 8.92554 12.9787 6.62487C16.6015 4.45658 21.0968 4.82659 25.381 5.03796Z" fill="white"/>
<path d="M8.90658 16.6468C8.77435 12.4158 9.80562 8.92554 12.9787 6.62487C16.6015 4.45658 21.0968 4.82659 25.381 5.03796M8.90658 16.6468L25.381 5.03796M8.90658 16.6468L4.88696 16.5942V25.0299H8.87979L8.90658 46.502L20.489 46.5283L20.4623 25.0559L25.4073 25.0299V16.5942L20.4096 16.6468M8.90658 16.6468H20.4096M25.381 5.03796L25.4073 12.9973M20.4096 16.6468C20.39 15.7183 20.5058 14.7919 20.7532 13.8967C21.9963 12.4953 23.6624 13.2092 25.4073 12.9973M20.4096 16.6468L19.8239 11.6911L25.4073 12.9973" stroke="white" stroke-width="0.0739034" stroke-miterlimit="2.6131"/>
<path fill-rule="evenodd" clip-rule="evenodd" d="M112.62 5.03784V19.4499C115.793 16.2502 120.605 14.8225 125.048 16.1448C126.783 16.6356 128.345 17.6013 129.56 18.9329C130.775 20.2644 131.594 21.9089 131.924 23.6809L132.161 26.405L132.135 46.5019H120.949C120.949 46.5019 121.002 34.8931 120.923 29.2605C120.632 27.8853 120.42 26.2989 118.966 25.5319C117.776 24.8973 116.242 25.0557 114.999 25.5319C114.207 26.0276 113.567 26.7311 113.147 27.5658C112.728 28.4004 112.545 29.3341 112.62 30.2653V46.5019H101.248V5.03784H112.62Z" fill="white"/>
<path fill-rule="evenodd" clip-rule="evenodd" d="M66.422 20.7458C67.0209 22.1106 67.3787 23.5688 67.4796 25.0558L67.268 25.2676H57.2722C57.0608 24.6591 56.9817 23.8924 56.5847 23.4163C55.3949 22.174 53.4379 22.2262 51.9306 22.5971C51.243 22.8609 50.397 23.4163 50.2644 24.2628C50.2478 24.4678 50.2772 24.6739 50.3504 24.866C50.4237 25.0582 50.539 25.2315 50.6878 25.3734C53.1734 26.6693 56.3731 26.405 59.0969 27.1449C62.8255 27.8325 67.0829 30.107 68.2728 34.1264C69.0931 37.3255 68.4844 40.8693 66.2101 43.2495C61.2125 48.1673 52.6712 48.2739 46.298 46.2637C43.2306 45.3118 39.8987 42.4029 39.3168 39.0707C39.2643 38.2254 38.9732 37.4053 39.1053 36.5588C42.5957 36.4267 46.4038 36.4802 49.7355 36.5325C49.815 37.8019 50.2381 39.0444 51.4018 39.8114C52.9354 40.6311 55.0773 40.8961 56.6113 39.8645C56.8908 39.6202 57.1155 39.3195 57.2704 38.9822C57.4253 38.6449 57.507 38.2785 57.5102 37.9073C57.5154 37.5667 57.4268 37.2313 57.2542 36.9376C57.0817 36.6439 56.8317 36.4032 56.5316 36.242C52.1684 34.6553 47.0918 34.8931 43.0718 32.4604C40.2691 30.6621 39.2905 27.5417 39.5814 24.4213C39.846 21.2214 42.6225 18.2336 45.5314 17.0435C49.8945 15.0867 55.0246 15.4303 59.8109 16.2502C62.4555 16.8057 65.0999 18.101 66.422 20.7458Z" fill="white"/>
<path d="M66.422 20.7458C67.0209 22.1106 67.3787 23.5688 67.4796 25.0558M57.2722 25.2676C57.0608 24.6591 56.9817 23.8924 56.5847 23.4163C55.3949 22.174 53.4379 22.2262 51.9306 22.5971C51.243 22.8609 50.397 23.4163 50.2644 24.2628C50.2478 24.4678 50.2772 24.6739 50.3504 24.866C50.4237 25.0582 50.539 25.2315 50.6878 25.3734C53.1734 26.6693 56.3731 26.405 59.0969 27.1449C62.8255 27.8325 67.0829 30.107 68.2728 34.1264C69.0931 37.3255 68.4844 40.8693 66.2101 43.2495C61.2125 48.1673 52.6712 48.2739 46.298 46.2637C43.2307 45.3118 39.8987 42.4029 39.3168 39.0707C39.2643 38.2254 38.9732 37.4053 39.1053 36.5588C42.5957 36.4267 46.4038 36.4802 49.7355 36.5325C49.815 37.8019 50.2381 39.0444 51.4018 39.8114C52.9354 40.6311 55.0773 40.8961 56.6113 39.8645C56.8908 39.6202 57.1155 39.3195 57.2704 38.9822C57.4253 38.6449 57.507 38.2785 57.5102 37.9073C57.5154 37.5667 57.4268 37.2313 57.2542 36.9376C57.0817 36.6439 56.8317 36.4032 56.5316 36.242C52.1684 34.6553 47.0918 34.8931 43.0718 32.4604C40.2691 30.6621 39.2905 27.5417 39.5814 24.4213C39.846 21.2214 42.6225 18.2336 45.5314 17.0435C49.8945 15.0867 55.0246 15.4303 59.8109 16.2502C62.4555 16.8057 65.0999 18.101 66.422 20.7458L57.2722 25.2676ZM67.4796 25.0558L67.268 25.2676H57.2722L67.4796 25.0558Z" stroke="white" stroke-width="0.0739034" stroke-miterlimit="2.6131"/>
<path fill-rule="evenodd" clip-rule="evenodd" d="M98.1284 21.7508C99.263 23.617 99.9674 25.7127 100.19 27.8854H89.7193C89.5661 27.1504 89.2518 26.4584 88.799 25.8594C88.3462 25.2605 87.7662 24.7693 87.1008 24.4215C85.9109 23.8662 84.2448 24.0252 83.1342 24.5803C80.3047 26.7222 80.4373 30.477 80.5957 33.8884C80.9397 35.9508 81.8648 38.463 84.2185 39.151C85.7522 39.4943 87.4712 39.2824 88.3698 37.8285C89.208 36.768 89.6563 35.4516 89.6394 34.1H100.402C100.562 39.151 96.9906 44.1751 92.4157 46.079C86.8624 48.3795 79.2999 47.9823 74.7784 43.752C69.5683 39.5211 67.8762 32.381 70.018 26.0613C71.6842 21.1956 76.5234 16.8848 81.6005 16.1181C87.8939 14.9811 94.4254 16.356 98.1284 21.7508Z" fill="white"/>
<path fill-rule="evenodd" clip-rule="evenodd" d="M38.1272 46.5283L26.8882 46.5022V16.6466L38.1272 16.5942V46.5283Z" fill="white"/>
<path fill-rule="evenodd" clip-rule="evenodd" d="M186.503 25.2412C185.401 25.2346 184.302 25.3499 183.225 25.5851C180.555 26.4052 178.518 28.0973 178.121 30.3185L177.777 32.3283L177.619 46.5021L166.67 46.5283V16.6468H177.619V20.4549C178.862 18.9212 180.422 17.4403 182.326 16.779C183.463 16.356 185.393 16.2239 186.503 16.277V25.2412Z" fill="white"/>
<path fill-rule="evenodd" clip-rule="evenodd" d="M147.684 23.9983C149.508 23.3637 151.783 23.5752 153.106 25.0299C153.807 25.8383 154.2 26.8686 154.216 27.9387C150.751 27.9384 148.584 27.9387 144.776 28.0445C144.776 26.3779 146.098 24.6327 147.684 23.9983ZM154.401 37.1141C153.793 37.9668 152.946 38.6202 151.967 38.9921C150.987 39.3639 149.92 39.4376 148.899 39.2036C147.103 38.8592 145.358 37.4844 144.802 35.6602C144.626 35.1781 144.572 34.6604 144.643 34.1524H165.639C165.749 30.7841 165.051 27.4385 163.604 24.3949C161.012 18.683 155.167 15.5894 149.139 15.5894C143.029 15.4834 137.397 19.1591 134.726 24.527C132.426 29.6041 133.087 36.5326 136.34 40.9748C140.121 46.237 146.15 47.7448 152.391 47.2424C157.733 46.5282 163.763 42.7468 165.295 37.1141H154.401Z" fill="white"/>
<path fill-rule="evenodd" clip-rule="evenodd" d="M38.1272 12.9975V5.01172L26.8882 5.0379L26.8616 13.0506L38.1272 12.9975Z" fill="white"/>
<path fill-rule="evenodd" clip-rule="evenodd" d="M256.95 28.6524C260.044 26.5633 263.165 24.3155 265.862 21.3803C265.862 23.4164 265.888 25.3467 265.888 27.3565C264.291 28.8045 262.595 30.1389 260.811 31.3497C262.623 32.5855 264.346 33.9462 265.967 35.4221C265.968 37.4585 265.994 39.389 266.021 41.3715C263.307 38.614 260.281 36.1826 257.004 34.1266C249.176 39.2037 240.316 42.0859 230.453 42.0859C220.59 41.901 211.784 39.0979 203.983 33.7826C202.977 33.0949 202.027 32.3283 201.101 31.5613L201.074 31.535C209.405 24.8708 219.03 21.2746 229.925 20.8515C240.026 20.6664 248.91 23.5222 256.95 28.6524Z" fill="white"/>
<path d="M256.95 28.6524C260.044 26.5633 263.165 24.3155 265.862 21.3803C265.862 23.4164 265.888 25.3467 265.888 27.3565C264.291 28.8045 262.595 30.1389 260.811 31.3497M201.074 31.535C209.405 24.8708 219.03 21.2746 229.925 20.8515C240.026 20.6664 248.91 23.5222 256.95 28.6524L201.074 31.535ZM201.101 31.5613L201.074 31.535L201.101 31.5613ZM257.004 34.1266C249.176 39.2037 240.316 42.0859 230.453 42.0859C220.59 41.901 211.784 39.0979 203.983 33.7826C202.977 33.0949 202.027 32.3283 201.101 31.5613L257.004 34.1266ZM266.021 41.3714C263.307 38.614 260.281 36.1826 257.004 34.1266L266.021 41.3714ZM260.811 31.3497C262.623 32.5855 264.346 33.9462 265.967 35.4221C265.967 37.4585 265.994 39.389 266.021 41.3714L260.811 31.3497Z" stroke="white" stroke-width="0.0739034" stroke-miterlimit="2.6131"/>
<path fill-rule="evenodd" clip-rule="evenodd" d="M256.95 30.3711C259.59 28.7785 262.077 26.9462 264.381 24.8973V25.0826L264.407 26.8808C262.557 28.5728 260.441 30.0009 258.431 31.3761C260.551 32.731 262.566 34.2425 264.461 35.8979L264.487 37.8811C262.089 35.9119 259.591 34.0672 257.004 32.3541L256.898 32.3809C248.277 38.4107 237.99 41.2661 226.831 40.4196C218.236 39.6003 210.435 36.691 203.56 31.5349C207.196 28.7136 211.269 26.5071 215.618 25.0033C223.102 22.2527 232.649 21.5128 240.768 23.4164C246.559 24.6716 252.054 27.0331 256.95 30.3711Z" fill="#E2001A"/>
<path d="M256.95 30.3711C259.59 28.7785 262.077 26.9462 264.381 24.8973M203.56 31.5349C207.196 28.7136 211.269 26.5071 215.618 25.0033C223.102 22.2527 232.649 21.5128 240.768 23.4164C246.559 24.6715 252.054 27.0329 256.95 30.3711L203.56 31.5349ZM256.898 32.3809C248.277 38.4107 237.99 41.2661 226.831 40.4196C218.236 39.6003 210.435 36.691 203.56 31.5349L256.898 32.3809ZM257.004 32.3541L256.898 32.3809L257.004 32.3541ZM264.487 37.8811C262.089 35.9119 259.591 34.0672 257.004 32.3541L264.487 37.8811ZM264.461 35.8979L264.487 37.8811L264.461 35.8979ZM258.431 31.3761C260.551 32.731 262.566 34.2425 264.461 35.8979L258.431 31.3761ZM264.407 26.8808C262.557 28.5728 260.441 30.0009 258.431 31.3761L264.407 26.8808ZM264.381 24.8973V25.0826L264.407 26.8808L264.381 24.8973Z" stroke="#E2001A" stroke-width="0.0739034" stroke-miterlimit="2.6131"/>
<path fill-rule="evenodd" clip-rule="evenodd" d="M255.442 31.3498V31.4025C245.475 38.3572 231.59 40.8694 219.32 37.5107C214.655 36.2828 210.236 34.2614 206.257 31.535C206.911 31.0286 207.601 30.569 208.32 30.1597C217.682 24.4477 230.215 22.3854 241.481 25.1885C246.466 26.3888 251.195 28.4757 255.442 31.3498Z" fill="white"/>
<path d="M255.442 31.3498V31.4025M255.442 31.4025C245.475 38.3572 231.59 40.8694 219.32 37.5107C214.655 36.2828 210.236 34.2614 206.257 31.535C206.911 31.0286 207.601 30.569 208.32 30.1597C217.682 24.4477 230.215 22.3854 241.481 25.1885C246.466 26.3888 251.195 28.4757 255.442 31.3498V31.4025Z" stroke="white" stroke-width="0.0739034" stroke-miterlimit="2.6131"/>
<path fill-rule="evenodd" clip-rule="evenodd" d="M218.898 27.1981C218.927 27.4261 218.901 27.6578 218.823 27.8739C218.745 28.09 218.616 28.2844 218.448 28.4409C218.21 28.5998 217.892 28.4147 217.601 28.494C216.835 28.6525 216.28 29.3396 215.83 29.9746C215.83 30.0277 215.909 30.0277 215.989 30.0277L219.215 30.0541C219.426 30.1334 219.717 30.0804 219.824 30.3185C219.884 30.5157 219.893 30.7253 219.849 30.9269C219.611 31.4025 219.401 31.8256 219.188 32.3283C219.334 32.2776 219.475 32.2155 219.611 32.1427C221.357 31.2437 223.102 30.2124 224.874 29.2606C225.35 29.1283 226.063 28.9433 226.381 29.3927C226.54 29.7368 226.063 29.9215 226.223 30.2654C226.514 31.1909 226.671 32.3543 225.958 33.1214C225.612 33.5439 225.15 33.8564 224.628 34.0207C224.107 34.1851 223.55 34.1942 223.023 34.0469C222.864 33.9805 222.726 33.8706 222.626 33.73C222.528 33.4985 222.503 33.2423 222.555 32.9961C222.607 32.75 222.734 32.5258 222.918 32.3543C223.023 32.2753 223.181 32.1427 223.314 32.249C223.465 32.369 223.64 32.4547 223.827 32.5003C224.014 32.5459 224.209 32.5503 224.398 32.5131C224.496 32.4518 224.579 32.3707 224.643 32.275C224.706 32.1794 224.749 32.0713 224.768 31.958C224.811 31.6746 224.755 31.3852 224.609 31.1384C222.997 32.0107 221.436 33.0419 219.744 33.7827C219.03 34.0469 218.025 34.1266 217.417 33.5711C216.889 32.8835 217.655 32.249 217.628 31.5878L217.549 31.5083C216.651 31.4817 215.752 31.4556 214.825 31.5083C214.27 32.249 213.979 33.1214 213.371 33.8089C212.956 34.0255 212.473 34.073 212.023 33.9415C211.917 33.8617 211.784 33.7559 211.784 33.6238L211.837 33.3065L212.763 31.5613L212.683 31.4817C212.339 31.5178 211.991 31.5001 211.653 31.4293C211.595 31.3771 211.552 31.3103 211.529 31.2359C211.505 31.1615 211.502 31.0822 211.52 31.0062C211.585 30.7757 211.71 30.5665 211.882 30.3994C212.053 30.2323 212.266 30.1132 212.498 30.0541H213.688C214.825 28.3616 216.438 26.7488 218.554 26.9337C218.66 26.9866 218.871 27.0395 218.898 27.1981Z" fill="#1A171B"/>
<path fill-rule="evenodd" clip-rule="evenodd" d="M221.887 27.4361C221.98 27.6262 222.026 27.8359 222.021 28.0476C222.017 28.2593 221.961 28.4668 221.859 28.6525C221.726 28.854 221.546 29.0197 221.333 29.135C221.121 29.2503 220.884 29.3115 220.643 29.3134C220.44 29.3081 220.243 29.249 220.071 29.1422C219.899 29.0354 219.758 28.8846 219.664 28.7055C219.596 28.5037 219.581 28.2875 219.623 28.0785C219.665 27.8696 219.761 27.6754 219.902 27.5155C220.086 27.3229 220.317 27.1806 220.571 27.1019C220.826 27.0233 221.096 27.011 221.357 27.0661C221.564 27.1393 221.747 27.2672 221.887 27.4361Z" fill="#1A171B"/>
<path fill-rule="evenodd" clip-rule="evenodd" d="M236.773 27.3829C236.826 27.7796 236.562 28.0704 236.377 28.4145C235.814 29.2597 235.31 30.1433 234.87 31.0588L234.896 31.1118C235.689 30.5826 236.455 29.9214 237.408 29.816C237.546 29.8211 237.68 29.8663 237.792 29.9461C237.905 30.0259 237.992 30.1368 238.043 30.2653C238.228 30.9 238.201 31.6139 238.494 32.1958C238.836 32.4336 239.127 32.0904 239.444 32.0106C240.079 31.7727 240.37 31.0852 240.687 30.5564C241.026 30.0692 241.489 29.6821 242.029 29.4355C242.568 29.1889 243.164 29.092 243.754 29.1548C243.921 29.1966 244.077 29.2753 244.21 29.3851C244.343 29.4949 244.449 29.633 244.522 29.7894C244.707 30.6621 243.94 31.3761 243.332 31.799C242.91 32.0381 242.456 32.2162 241.984 32.3282C242.009 32.4604 242.168 32.5129 242.274 32.566C242.802 32.672 243.252 32.4336 243.754 32.2489C245.314 31.667 246.743 30.6884 248.171 29.7894C248.241 29.7567 248.318 29.7398 248.396 29.7398C248.473 29.7398 248.55 29.7567 248.62 29.7894C248.859 29.9214 248.885 30.2653 248.991 30.5296C249.541 30.0627 250.227 29.7848 250.947 29.7366L251.715 29.7629C251.9 29.8156 251.899 30.6094 251.715 30.9267C251.397 31.4815 250.577 31.0588 250.102 31.3761C249.044 31.6407 248.435 32.672 247.933 33.571C247.729 33.739 247.483 33.8476 247.222 33.8849C246.961 33.9223 246.694 33.8868 246.452 33.7826C246.081 33.2269 246.637 32.7513 246.796 32.2489L246.77 32.2226C245.578 32.995 244.276 33.5832 242.909 33.9676C241.93 34.1792 240.872 33.9941 240.316 33.0949C240.211 33.0418 240.132 33.1479 240.026 33.1744C239.206 33.65 238.201 34.3907 237.251 33.8353C236.773 33.3064 236.799 32.6191 236.694 31.9578C236.668 31.8785 236.588 31.7727 236.483 31.799C235.91 32.0985 235.361 32.4433 234.843 32.8303C234.05 33.3595 233.204 34.3377 232.145 33.7826C231.988 33.6768 232.04 33.4122 232.092 33.2799C232.151 33.0473 232.222 32.8178 232.305 32.5924L232.279 32.566C231.088 33.4122 229.792 34.0734 228.286 33.9146C227.987 33.8557 227.706 33.7266 227.467 33.5381C227.228 33.3496 227.037 33.107 226.91 32.8303C226.833 32.4523 226.856 32.0609 226.976 31.6946C227.097 31.3284 227.311 30.9998 227.597 30.7415C228.055 30.2977 228.617 29.9757 229.232 29.8047C229.846 29.6338 230.494 29.6194 231.115 29.7629C231.38 29.8683 231.088 30.6359 230.878 30.953C230.64 31.3497 230.188 31.2176 229.792 31.2176C229.559 31.2362 229.335 31.314 229.141 31.4435C228.946 31.5731 228.788 31.7501 228.682 31.9578C228.655 32.0609 228.662 32.1695 228.7 32.2689C228.737 32.3683 228.805 32.4535 228.893 32.5129C229.58 32.5394 230.137 32.1694 230.718 31.9578C232.01 31.3447 233.135 30.4285 233.998 29.2873C234.288 28.6536 234.642 28.051 235.055 27.4887C235.345 27.0924 236.114 27.0393 236.642 27.198L236.773 27.3829Z" fill="#1A171B"/>
<path fill-rule="evenodd" clip-rule="evenodd" d="M243.067 30.3711C242.977 30.5637 242.849 30.7358 242.689 30.8768C242.53 31.0178 242.344 31.1247 242.142 31.1908C242.183 31.0202 242.261 30.8607 242.371 30.7236C242.481 30.5866 242.619 30.4753 242.776 30.3975C242.856 30.3975 242.988 30.2653 243.067 30.3711Z" fill="white"/>
<path d="M243.067 30.3711C242.977 30.5637 242.849 30.7358 242.689 30.8768C242.53 31.0178 242.344 31.1247 242.142 31.1908C242.183 31.0202 242.261 30.8607 242.371 30.7236C242.481 30.5866 242.619 30.4753 242.776 30.3975C242.856 30.3975 242.988 30.2653 243.067 30.3711" stroke="white" stroke-width="0.0739034" stroke-miterlimit="2.6131"/>
<path fill-rule="evenodd" clip-rule="evenodd" d="M275.699 19.3705H277.207C277.358 19.387 277.512 19.3668 277.655 19.3116C277.797 19.2564 277.924 19.1679 278.025 19.0534C278.11 18.9383 278.156 18.7998 278.158 18.6571C278.163 18.505 278.117 18.3556 278.025 18.2337C277.922 18.1202 277.795 18.0307 277.654 17.9713C277.512 17.912 277.36 17.8843 277.207 17.8901H275.699V19.3705ZM277.101 17.3609C277.312 17.3609 278.106 17.2817 278.581 17.9164C278.738 18.121 278.822 18.3724 278.82 18.6303C278.831 18.8649 278.766 19.0968 278.634 19.2912C278.495 19.4869 278.307 19.6433 278.089 19.7453C277.871 19.8472 277.631 19.8913 277.391 19.8731L278.846 22.0412H278.025L276.704 19.9525H275.699V22.015H275.039V17.3609H277.101ZM273.082 19.7146C273.087 20.4248 273.303 21.1176 273.701 21.7055C274.1 22.2934 274.663 22.7503 275.321 23.0183C275.978 23.2864 276.701 23.3538 277.397 23.2119C278.093 23.0701 278.731 22.7253 279.231 22.2212C279.731 21.717 280.071 21.0761 280.208 20.3791C280.344 19.6821 280.271 18.9604 279.998 18.3048C279.725 17.6492 279.264 17.0892 278.673 16.6954C278.082 16.3016 277.387 16.0915 276.677 16.0918C276.203 16.0923 275.733 16.1866 275.295 16.3692C274.858 16.5518 274.46 16.8191 274.126 17.1558C273.792 17.4925 273.528 17.8919 273.349 18.331C273.17 18.7701 273.079 19.2404 273.082 19.7146ZM280.962 19.7146C280.948 20.3144 280.822 20.9062 280.591 21.4598C280.248 22.2095 279.696 22.8447 279.003 23.2901C278.309 23.7355 277.501 23.9722 276.677 23.9721C275.547 23.9685 274.464 23.5169 273.666 22.7164C272.868 21.9158 272.42 20.8316 272.42 19.7012C272.42 18.5709 272.868 17.4866 273.666 16.6861C274.464 15.8856 275.547 15.434 276.677 15.4304C277.812 15.4348 278.899 15.8876 279.702 16.6901C280.504 17.4925 280.957 18.5797 280.962 19.7146Z" fill="#1A171B"/>
<path d="M105.321 63.6867H104.156L101.244 72.9252H102.409L105.321 63.6867ZM106.626 59.5293H105.462L105.08 60.7345H106.245L106.626 59.5293ZM109.499 63.6867H108.394C108.294 64.2089 108.133 64.7511 107.852 65.6952L105.582 72.9252H106.747L108.113 68.6072C108.615 67.0206 109.057 66.137 109.719 65.4742C110.06 65.0998 110.471 64.7969 110.93 64.5831C111.388 64.3693 111.885 64.2489 112.391 64.2289C113.435 64.2289 114.098 64.7914 114.098 65.675C114.08 66.1129 113.999 66.5458 113.857 66.9604L111.969 72.9252H113.134L114.941 67.2013C115.129 66.6368 115.238 66.0486 115.262 65.454C115.262 64.2891 114.178 63.3854 112.792 63.3854C111.935 63.4019 111.103 63.6747 110.402 64.1686C109.943 64.491 109.524 64.8688 109.157 65.2934L109.499 63.6867ZM120.163 63.6867H119.058C118.958 64.2089 118.797 64.7511 118.516 65.6952L116.247 72.9252H117.412L118.777 68.6072C119.279 67.0206 119.721 66.137 120.384 65.4742C120.724 65.0998 121.136 64.7969 121.594 64.5831C122.053 64.3693 122.549 64.2489 123.055 64.2289C124.099 64.2289 124.762 64.7914 124.762 65.675C124.744 66.1129 124.663 66.5458 124.521 66.9604L122.633 72.9252H123.798L125.606 67.2013C125.794 66.6368 125.902 66.0486 125.927 65.454C125.927 64.2891 124.842 63.3854 123.457 63.3854C122.6 63.4019 121.767 63.6747 121.067 64.1686C120.607 64.491 120.189 64.8688 119.821 65.2934L120.163 63.6867ZM133.237 63.3854C132.503 63.3811 131.776 63.5392 131.11 63.8482C130.443 64.1572 129.853 64.6095 129.381 65.1729C128.351 66.4338 127.771 68.0032 127.735 69.6314C127.735 71.7403 129.16 73.0859 131.39 73.0859C132.088 73.0911 132.778 72.9468 133.416 72.6627C134.053 72.3786 134.622 71.9614 135.085 71.439C136.174 70.2015 136.805 68.6276 136.873 66.9805C136.873 64.7511 135.487 63.3854 133.237 63.3854ZM133.217 64.2289C134.724 64.2289 135.708 65.2332 135.708 66.8197C135.606 68.0617 135.221 69.2639 134.583 70.3343C134.264 70.9034 133.801 71.3789 133.241 71.7137C132.68 72.0484 132.042 72.2307 131.39 72.2424C131.06 72.2543 130.73 72.198 130.423 72.0771C130.115 71.9562 129.836 71.7732 129.602 71.5395C129.369 71.3058 129.186 71.0265 129.065 70.719C128.944 70.4115 128.887 70.0823 128.899 69.7521C128.958 68.5168 129.324 67.3156 129.964 66.2575C130.767 64.9318 131.892 64.2289 133.217 64.2289ZM147.356 63.6867H146.131L142.255 69.7922C141.833 70.4749 141.291 71.419 140.969 72.1018C140.949 71.7403 140.929 71.3989 140.929 71.2985C140.929 71.198 140.869 70.4749 140.829 69.6515L140.407 63.6867H139.322L140.106 72.9252H141.271L147.356 63.6867ZM149.766 65.8958C150.227 64.6909 150.89 64.2289 152.196 64.2289C153.642 64.2289 154.245 64.7511 154.245 65.9963C154.248 66.2902 154.201 66.5825 154.104 66.86L153.943 67.382H152.497C151.413 67.3541 150.329 67.4416 149.264 67.6431C147.617 68.085 146.612 69.27 146.612 70.7763C146.612 72.1419 147.758 73.0859 149.404 73.0859C150.649 73.0859 151.533 72.7043 152.779 71.6197L152.356 72.9252H153.501C153.714 71.892 153.989 70.8726 154.325 69.8725L154.968 67.844C155.216 67.1871 155.365 66.4966 155.409 65.7955C155.409 64.2891 154.204 63.3854 152.196 63.3854C151.255 63.3396 150.329 63.6317 149.585 64.2089C149.123 64.5905 148.882 64.992 148.601 65.8958H149.766ZM153.682 68.2256C153.16 69.6717 152.879 70.2741 152.417 70.8164C152.081 71.2455 151.655 71.5956 151.169 71.842C150.683 72.0884 150.149 72.2251 149.605 72.2424C148.5 72.2424 147.777 71.6197 147.777 70.6558C147.777 69.7118 148.36 68.9688 149.364 68.6072C150.107 68.3261 151.031 68.2256 152.538 68.2256H153.682ZM161.234 64.5303H162.981L163.242 63.6867H161.494L162.117 61.6783L160.811 62.1201L160.33 63.6867H158.522L158.261 64.5303H160.069L158.583 69.27C158.101 70.7763 158.04 71.0173 158.04 71.4792C158.04 72.5234 158.763 73.0859 160.109 73.0859C160.482 73.0717 160.852 73.0179 161.214 72.9252L161.515 71.9612C161.088 72.0738 160.65 72.1345 160.209 72.1419C159.567 72.1419 159.205 71.881 159.205 71.3989C159.244 70.8547 159.366 70.3196 159.567 69.8123L161.234 64.5303ZM167.238 63.6867H166.073L163.162 72.9252H164.326L167.238 63.6867ZM168.544 59.5293H167.379L166.997 60.7345H168.162L168.544 59.5293H168.544ZM176.959 63.6867H175.734L171.858 69.7922C171.435 70.4749 170.893 71.419 170.572 72.1018C170.552 71.7403 170.532 71.3989 170.532 71.2985C170.532 71.198 170.472 70.4749 170.432 69.6515L170.01 63.6867H168.925L169.709 72.9252H170.874L176.959 63.6867ZM184.851 68.4867C185.233 67.342 185.354 66.8399 185.354 66.1569C185.354 64.4499 184.189 63.4055 182.261 63.4055C181.569 63.4004 180.885 63.5513 180.259 63.8468C179.633 64.1424 179.082 64.575 178.646 65.1127C177.48 66.5476 176.816 68.3255 176.758 70.1738C176.758 71.9412 178.063 73.0859 180.092 73.0859C181.015 73.1128 181.925 72.8659 182.708 72.3762C183.49 71.8865 184.111 71.176 184.49 70.3343H183.265C182.361 71.6398 181.417 72.2424 180.172 72.2424C178.767 72.2424 177.922 71.4792 177.922 70.1939C177.92 69.6113 178.022 69.0331 178.224 68.4867H184.851ZM178.425 67.6431C179.208 65.4341 180.534 64.2491 182.241 64.2491C183.385 64.2491 184.189 64.9519 184.189 65.916C184.172 66.5049 184.064 67.0877 183.867 67.6431H178.425ZM202.089 66.1972C202.109 65.9561 202.109 65.7753 202.109 65.5946C202.109 64.1888 201.044 63.3854 199.217 63.3854C196.927 63.3854 195.481 64.4298 195.481 66.0566C195.472 66.3077 195.513 66.5581 195.602 66.7928C195.692 67.0274 195.828 67.2416 196.003 67.4223C196.324 67.7235 196.787 67.9846 198.172 68.6474C199.397 69.2097 199.779 69.6115 199.779 70.3746C199.779 71.4792 198.714 72.2424 197.168 72.2424C196.84 72.2697 196.509 72.2244 196.201 72.1099C195.892 71.9954 195.612 71.8143 195.381 71.5796C195.079 71.2381 194.979 70.8968 194.919 69.9729H193.794C193.894 72.2223 194.798 73.0859 197.047 73.0859C199.357 73.0859 200.944 71.9412 200.944 70.2741C200.944 69.1896 200.321 68.4063 198.936 67.7636C198.401 67.5434 197.883 67.2816 197.389 66.9805C196.867 66.6592 196.646 66.3177 196.646 65.8557C196.646 64.8917 197.65 64.2289 199.116 64.2289C200.321 64.2289 200.924 64.7109 200.924 65.675C200.924 65.7753 200.924 65.8759 200.903 66.1972H202.089ZM209.078 63.3854C208.343 63.3811 207.616 63.5391 206.95 63.8481C206.283 64.1571 205.693 64.6095 205.222 65.1729C204.191 66.4337 203.611 68.0032 203.575 69.6314C203.575 71.7403 205 73.0859 207.23 73.0859C207.928 73.091 208.619 72.9467 209.256 72.6626C209.894 72.3785 210.463 71.9613 210.926 71.439C212.014 70.2013 212.645 68.6275 212.713 66.9805C212.713 64.7511 211.327 63.3854 209.078 63.3854ZM209.057 64.2289C210.564 64.2289 211.548 65.2332 211.548 66.8197C211.446 68.0617 211.061 69.2639 210.423 70.3343C210.104 70.9034 209.641 71.3789 209.081 71.7136C208.521 72.0483 207.882 72.2306 207.23 72.2424C206.9 72.2543 206.571 72.198 206.263 72.077C205.956 71.9561 205.676 71.7731 205.443 71.5394C205.209 71.3057 205.026 71.0264 204.905 70.7189C204.784 70.4114 204.728 70.0823 204.74 69.7521C204.798 68.5169 205.164 67.3158 205.804 66.2575C206.607 64.9318 207.732 64.2289 209.057 64.2289ZM219.16 59.5293H217.995L213.777 72.9252H214.942L219.16 59.5293ZM228.539 63.6867H227.374L226.39 66.7796C225.506 69.6115 225.365 69.9328 224.723 70.6959C223.899 71.7001 222.935 72.2424 222.031 72.2424C220.987 72.2424 220.244 71.5796 220.244 70.6357C220.275 70.0353 220.383 69.4413 220.565 68.8682L222.192 63.6867H221.027L219.702 67.8843C219.239 69.3504 219.079 70.0934 219.079 70.7361C219.079 72.1018 220.163 73.0859 221.67 73.0859C222.835 73.0859 223.979 72.4632 225.165 71.198L224.903 72.9252H225.988C226.028 72.6641 226.048 72.4834 226.089 72.3228C226.263 71.1497 226.538 69.9938 226.912 68.8682L228.539 63.6867ZM233.439 64.5303H235.186L235.447 63.6867H233.7L234.323 61.6783L233.017 62.1201L232.535 63.6867H230.727L230.467 64.5303H232.274L230.787 69.27C230.305 70.7763 230.245 71.0173 230.245 71.4792C230.245 72.5234 230.968 73.0859 232.314 73.0859C232.686 73.0718 233.057 73.018 233.418 72.9252L233.719 71.9612C233.293 72.0737 232.855 72.1344 232.414 72.1419C231.771 72.1419 231.41 71.881 231.41 71.3989C231.449 70.8547 231.571 70.3197 231.771 69.8123L233.439 64.5303ZM239.443 63.6867H238.278L235.366 72.9252H236.531L239.443 63.6867ZM240.749 59.5293H239.584L239.202 60.7345H240.367L240.749 59.5293ZM246.031 63.3854C245.296 63.3811 244.57 63.5391 243.903 63.8481C243.236 64.1571 242.646 64.6095 242.175 65.1729C241.144 66.4337 240.564 68.0032 240.528 69.6314C240.528 71.7403 241.953 73.0859 244.183 73.0859C244.881 73.091 245.572 72.9467 246.209 72.6626C246.847 72.3785 247.416 71.9613 247.879 71.439C248.967 70.2013 249.598 68.6274 249.666 66.9805C249.666 64.7511 248.28 63.3854 246.031 63.3854ZM246.01 64.2289C247.517 64.2289 248.501 65.2332 248.501 66.8197C248.399 68.0617 248.014 69.2638 247.376 70.3343C247.057 70.9034 246.594 71.3789 246.034 71.7136C245.474 72.0483 244.835 72.2306 244.183 72.2424C243.853 72.2543 243.524 72.198 243.216 72.077C242.909 71.9561 242.629 71.7731 242.396 71.5394C242.162 71.3057 241.979 71.0264 241.858 70.7189C241.737 70.4114 241.681 70.0823 241.693 69.7521C241.751 68.5168 242.117 67.3156 242.757 66.2575C243.56 64.9318 244.685 64.2289 246.01 64.2289ZM254.647 63.6867H253.542C253.441 64.2089 253.281 64.7511 252.999 65.6952L250.73 72.9252H251.895L253.26 68.6072C253.763 67.0206 254.205 66.137 254.867 65.4742C255.208 65.0998 255.619 64.7969 256.077 64.5831C256.536 64.3693 257.033 64.2489 257.538 64.2289C258.582 64.2289 259.245 64.7914 259.245 65.675C259.228 66.1129 259.146 66.5459 259.004 66.9604L257.116 72.9252H258.281L260.089 67.2013C260.277 66.6367 260.385 66.0486 260.41 65.454C260.41 64.2891 259.326 63.3854 257.94 63.3854C257.083 63.4019 256.251 63.6747 255.55 64.1686C255.09 64.491 254.672 64.8688 254.305 65.2934L254.647 63.6867ZM269.97 66.1972C269.99 65.9561 269.99 65.7753 269.99 65.5946C269.99 64.1888 268.926 63.3854 267.098 63.3854C264.809 63.3854 263.362 64.4298 263.362 66.0566C263.353 66.3077 263.394 66.5582 263.484 66.7929C263.574 67.0276 263.71 67.2417 263.885 67.4223C264.206 67.7235 264.668 67.9846 266.054 68.6474C267.279 69.2097 267.661 69.6115 267.661 70.3746C267.661 71.4792 266.596 72.2424 265.05 72.2424C264.722 72.2697 264.391 72.2244 264.082 72.1099C263.773 71.9954 263.493 71.8143 263.262 71.5796C262.961 71.2381 262.86 70.8968 262.8 69.9729H261.676C261.776 72.2223 262.68 73.0859 264.929 73.0859C267.239 73.0859 268.825 71.9412 268.825 70.2741C268.825 69.1896 268.203 68.4063 266.817 67.7636C266.282 67.5434 265.765 67.2816 265.271 66.9805C264.749 66.6592 264.527 66.3177 264.527 65.8557C264.527 64.8917 265.532 64.2289 266.998 64.2289C268.203 64.2289 268.805 64.7109 268.805 65.675C268.805 65.7753 268.805 65.8759 268.785 66.1972H269.97Z" fill="#1A171B"/>
</svg>
