<svg width="208" height="138" viewBox="0 0 208 138" fill="none" xmlns="http://www.w3.org/2000/svg">
<path d="M190.666 30.4616H17.3335V107.538H190.666V30.4616Z" fill="#003976"/>
<path d="M125.354 83.1891L122.022 83.1837V81.0573L131.497 81.0461L131.495 83.1962L128.243 83.1938L128.231 91.635L125.368 91.6563L125.354 83.1891Z" fill="#FFD118"/>
<path d="M39.5719 41.908H28.2915V78.2434H39.5719V41.908Z" fill="#FFD118"/>
<path d="M138.44 41.908H127.154V78.2434H138.44V41.908Z" fill="#FFD118"/>
<path d="M164.695 61.0836V41.9078H173.8V78.2433H164.642L151.644 57.125H151.656V78.2433H142.555V41.9078H153.145L164.685 61.0836H164.695Z" fill="#FFD118"/>
<path d="M115.044 41.9078L109.985 62.8806H109.88L105.585 41.9078H97.1412L92.8792 62.8806H92.7642L87.7067 41.9078H77.166L86.9111 78.2433H96.704L101.376 58.4973L106.05 78.2433H115.846L125.582 41.9078H115.044Z" fill="#FFD118"/>
<path d="M71.9195 64.471L78.3342 78.2434H66.3673L61.0454 67.0103H55.0823V78.2434H43.7454V41.908C43.7454 41.908 62.4141 41.9032 63.5409 41.908C64.7364 41.9127 66.1224 41.9978 66.3637 42.0114C68.9508 42.1722 71.4189 43.1506 73.4087 44.8041C75.3985 46.4576 76.8061 48.6999 77.4266 51.2047C78.0471 53.7094 77.8482 56.3459 76.8588 58.7304C75.8693 61.1149 74.1411 63.1228 71.9255 64.4621L71.9195 64.471ZM61.0329 59.2205C62.3116 59.2205 63.5379 58.715 64.4421 57.8152C65.3463 56.9153 65.8543 55.6949 65.8543 54.4223C65.8543 53.1498 65.3463 51.9293 64.4421 51.0295C63.5379 50.1296 62.3116 49.6241 61.0329 49.6241L55.0823 49.6432V59.2235L61.0329 59.2205Z" fill="#FFD118"/>
<path d="M178.841 71.0907C179.57 71.0905 180.282 71.3052 180.888 71.7075C181.494 72.1098 181.966 72.6817 182.246 73.3511C182.526 74.0205 182.6 74.7574 182.459 75.4686C182.318 76.1799 181.969 76.8338 181.455 77.3477C180.941 77.8616 180.286 78.2125 179.572 78.3561C178.858 78.4997 178.117 78.4296 177.443 78.1547C176.769 77.8797 176.192 77.4122 175.785 76.8112C175.378 76.2101 175.158 75.5025 175.155 74.7776C175.151 74.2939 175.244 73.8142 175.427 73.3663C175.611 72.9185 175.882 72.5113 176.225 72.1684C176.568 71.8255 176.975 71.5537 177.424 71.3687C177.874 71.1837 178.355 71.0892 178.841 71.0907ZM178.841 77.4934C179.388 77.5048 179.925 77.3537 180.385 77.0594C180.845 76.7651 181.206 76.341 181.422 75.8413C181.639 75.3417 181.7 74.7891 181.599 74.2544C181.498 73.7197 181.239 73.2271 180.856 72.8397C180.472 72.4522 179.981 72.1875 179.445 72.0794C178.909 71.9713 178.353 72.0246 177.848 72.2327C177.343 72.4408 176.911 72.7941 176.609 73.2474C176.307 73.7008 176.147 74.2335 176.151 74.7776C176.147 75.132 176.214 75.4838 176.347 75.8125C176.48 76.1412 176.678 76.4405 176.928 76.6929C177.178 76.9454 177.476 77.1461 177.804 77.2835C178.132 77.4209 178.485 77.4922 178.841 77.4934ZM177.423 72.6869H178.824C179.321 72.6869 180.371 72.6869 180.371 73.9159C180.391 74.1315 180.34 74.3477 180.227 74.5327C180.114 74.7178 179.945 74.8619 179.743 74.9439L180.537 76.7227H179.468L178.896 75.1454H178.419V76.7227H177.423V72.6869ZM178.419 74.484H178.841C179.247 74.484 179.392 74.2279 179.392 73.8987C179.392 73.3489 179.009 73.3489 178.804 73.3489H178.419V74.484Z" fill="#FFD118"/>
<path d="M137.259 80.9479C140.615 80.9515 142.755 83.0161 142.75 86.35C142.745 89.6779 140.604 91.7407 137.251 91.7347C133.894 91.7323 131.786 89.6667 131.791 86.3363C131.795 83.0048 133.904 80.9456 137.259 80.9479ZM137.251 89.5721C138.936 89.5721 139.897 88.4478 139.897 86.3464C139.899 84.2397 138.929 83.1141 137.26 83.113C135.588 83.113 134.631 84.2332 134.63 86.3399C134.628 88.4567 135.58 89.5698 137.251 89.5721Z" fill="#FFD118"/>
<path d="M149.529 80.9367C152.883 80.9403 155.021 83.0036 155.02 86.3387C155.017 89.6655 152.871 91.727 149.517 91.7223C146.162 91.7187 144.057 89.6553 144.061 86.325C144.062 82.9947 146.173 80.9343 149.529 80.9367ZM149.522 89.5585C151.204 89.5609 152.165 88.4353 152.165 86.3351C152.169 84.2261 151.199 83.1029 149.528 83.0981C147.858 83.0981 146.899 84.2201 146.898 86.3274C146.895 88.4454 147.85 89.5573 149.522 89.5585Z" fill="#FFD118"/>
<path d="M156.097 81.0413H158.904L158.898 89.3766L164.18 89.382L164.179 91.6462L156.087 91.6391L156.097 81.0413Z" fill="#FFD118"/>
<path d="M167.542 88.0835C167.572 89.2465 168.269 89.8491 169.603 89.8491C170.774 89.8491 171.397 89.4688 171.398 88.8406C171.405 88.6916 171.369 88.5438 171.294 88.4149C171.218 88.286 171.107 88.1816 170.973 88.1144C170.321 87.7976 169.077 87.5986 167.483 87.0019C165.906 86.4172 165.085 85.4312 165.087 84.1648C165.087 82.2465 166.718 80.9694 169.447 80.9706C172.105 80.9753 173.727 82.3124 173.727 84.3455L171.098 84.3431C170.978 83.3917 170.387 82.9489 169.262 82.9454C168.322 82.9465 167.746 83.3578 167.744 83.87C167.744 84.6367 168.592 84.7953 170.307 85.3231C171.257 85.5392 172.168 85.8962 173.011 86.382C173.352 86.6297 173.628 86.9561 173.814 87.3332C174.001 87.7103 174.092 88.1269 174.081 88.5471C174.081 90.5373 172.398 91.7722 169.329 91.768C166.49 91.768 165.018 90.5545 164.853 88.0811L167.542 88.0835Z" fill="#FFD118"/>
<path d="M28.2058 81.0092V83.4415H114.138L124.291 96.2799H174.118V94.0046H125.396L115.164 81.0092H28.2058Z" fill="#FFD118"/>
</svg>
