<svg width="218" height="32" viewBox="0 0 218 32" fill="none" xmlns="http://www.w3.org/2000/svg">
<path fill-rule="evenodd" clip-rule="evenodd" d="M112.327 1.01294H102.97L102.972 16.7973L108.883 16.8065L108.888 5.50966L108.963 5.4527L116.892 16.8101L121.487 16.7904L129.466 5.5093L129.454 16.7632L135.382 16.8154L135.384 1.01295H126.239L119.191 11.1572L112.327 1.01294ZM83.3365 13.0122V10.5021C88.2639 10.4923 93.2259 10.4825 98.1533 10.4727L98.1438 7.20182L83.3365 7.19337V4.71577L98.9689 4.68251L98.9838 1.03284L77.2734 1V16.8124L99.31 16.7943L99.3014 13.0224L83.3365 13.0122ZM162.455 10.6697C163.375 9.05955 163.334 7.63612 163.185 5.57348C163.027 3.37359 161.609 1.89275 159.412 1.41514C159.091 1.26384 157.598 1.0484 157.104 1.11738L139.511 1.04417L139.483 16.8237L145.562 16.8124L145.536 12.8711L155.263 12.8415C157.697 12.8436 161.003 13.2098 162.455 10.6697V10.6697ZM145.582 4.93716C146.203 5.02186 147.279 4.95748 147.952 4.95689C148.758 4.95615 149.564 4.95546 150.369 4.9548C151.9 4.9537 153.661 4.87596 155.165 4.99204C157.247 5.04571 157.855 7.48922 156.346 8.6001C156.082 8.79412 155.748 8.84288 155.416 8.90418L145.599 8.90638L145.582 4.93716H145.582ZM192.868 16.7965L198.922 16.8086L198.936 12.7256C201.969 12.8608 205.22 12.7375 208.271 12.737C211.492 12.6812 210.96 14.2526 210.962 16.8038C211.648 16.8378 216.749 16.8792 217.046 16.7819C217.061 15.3697 217.295 13.481 216.642 12.229C216.302 11.3523 214.622 10.642 213.752 10.7079C218.857 10.5487 219.625 1.16839 211.648 1.03922L192.868 1.03118V16.7965V16.7965ZM198.945 4.96661L208.93 4.95762C211.568 4.81556 212.232 8.73194 209.075 8.79166C205.704 8.79172 202.317 8.83422 198.947 8.79051L198.945 4.96661ZM173.529 13.0122L173.536 10.6015L173.533 10.5021L182.547 10.4842L183.06 10.4831L188.315 10.4727L188.306 7.20182L173.534 7.19337L173.538 7.09082L173.53 6.92776L173.499 4.71578L189.131 4.68252L189.137 1.93355L189.068 1.03285L167.4 1.00001L167.436 16.8124L186.272 16.8117L189.472 16.7943L189.464 13.0224L187.903 13.0202L184.535 13.0209L173.529 13.0122V13.0122ZM54.7587 6.81405L54.272 6.79911L54.2671 4.92489L54.2688 1.00533L52.34 1.00477L48.2036 1.00795V16.8081L54.1907 16.7801L54.2768 10.7589L56.7874 10.7555L65.7257 16.7717L74.2341 16.807L74.0682 16.6582L62.3618 8.71729L73.0272 1L65.0114 1.00375L58.199 6.01111L57.1686 6.81791L54.7587 6.81405Z" fill="white" stroke="#1D2B6B" stroke-width="0.176399" stroke-miterlimit="2.61313"/>
<path fill-rule="evenodd" clip-rule="evenodd" d="M129.221 30.9998H136.509C137.027 30.9912 137.516 30.8289 138.122 30.465C138.546 30.21 138.862 29.8076 139.011 29.334C139.173 28.8601 139.179 25.9866 139.074 25.3953C138.858 24.1889 137.597 23.7528 136.164 23.6054C134.835 23.4689 130.77 23.459 129.464 23.6054C128.088 23.7597 126.939 24.2202 126.659 25.5108C126.494 26.2676 126.54 28.6863 126.766 29.3908C127.09 30.407 128.232 30.9111 129.221 30.9998H129.221ZM87.8757 30.908L90.6614 30.9199V29.0521C91.7566 28.9523 93.1852 29.0321 94.3176 29.03C95.418 29.0717 96.1028 29.6445 96.237 30.9212L99.0176 30.9066C98.5169 28.6233 98.5679 29.1539 97.5547 28.0717C98.9745 27.8991 99.1953 26.8275 99.044 25.3985C98.8857 23.9037 97.9787 23.8013 96.4574 23.6682C95.1044 23.5498 89.644 23.6412 87.8779 23.6466L87.8757 30.908ZM51.0376 30.9998H58.226C59.0517 30.9282 59.7643 30.9889 60.2053 29.7467C60.461 29.0265 60.3415 27.6299 60.3355 26.7774L54.0545 26.748L54.0583 28.2017L57.5458 28.245C57.5274 29.4388 56.476 29.1402 56.1066 29.2192C55.7633 29.2928 55.2675 29.2274 53.9294 29.2274C51.8223 29.2274 51.3139 29.5242 51.3117 27.221C51.3096 25.0251 52.0429 25.3266 54.0213 25.3268C54.7849 25.3269 55.5566 25.3154 56.3191 25.3247C57.7254 25.3418 57.2326 25.8374 57.6929 26.1144H60.2949C60.1475 24.9564 60.2534 24.6142 59.7658 24.215C58.5039 23.1818 52.1653 23.4766 50.8014 23.7038C48.5461 24.0798 48.4489 25.1825 48.4481 27.4975C48.4477 28.4472 48.3923 29.3472 48.937 30.0227C49.608 30.8547 50.6144 30.9636 51.0376 30.9998H51.0376ZM205.885 30.8707L208.708 30.9005L208.728 29.0988C210.526 29.0624 213.004 29.1681 214.86 29.0106C217.168 28.7804 217.075 26.1552 216.691 25.0854C216.142 23.5574 213.897 23.6332 211.994 23.6333L205.886 23.6724L205.885 30.8707ZM169.239 30.9998H175.618C175.952 31.0079 178.077 30.6759 178.118 28.5148C178.144 27.1965 178.149 24.9236 178.118 23.6344L175.388 23.6362L175.341 27.9631C175.325 29.3826 174.594 29.1086 172.432 29.1086C170.516 29.1086 169.505 29.4181 169.477 27.778L169.432 23.6229L166.677 23.6334L166.695 28.5763C166.823 30.7769 168.732 30.943 169.239 30.9998L169.239 30.9998ZM131.218 25.4439C130.333 25.5326 129.751 25.5682 129.53 26.3558C129.424 26.7348 129.413 27.5657 129.515 28.1642C129.648 28.9362 129.931 28.9969 130.697 29.0912C131.917 29.2416 133.869 29.1055 134.614 29.1094C135.59 29.1146 136.13 29.0773 136.238 28.1254C136.299 27.5848 136.338 26.8476 136.179 26.3183C136.004 25.7364 135.641 25.6148 135.078 25.5056C133.912 25.28 131.995 25.3662 131.218 25.4439L131.218 25.4439ZM90.6611 27.2023L95.5153 27.2194C96.0671 27.1866 96.3301 26.9676 96.3541 26.3913C96.404 25.1897 94.9704 25.4451 93.9505 25.4453L90.6634 25.4691L90.6611 27.2023L90.6611 27.2023ZM208.726 27.2974C209.77 27.2973 210.79 27.2972 211.811 27.2973C212.814 27.2974 213.956 27.5607 213.972 26.3915C213.988 25.2334 212.785 25.445 211.811 25.4453L208.721 25.4454L208.726 27.2974Z" fill="white" stroke="#1D2B6B" stroke-width="0.176399" stroke-miterlimit="2.61313"/>
<path fill-rule="evenodd" clip-rule="evenodd" d="M3.09288 1H33.7583C34.5779 1.0024 35.3632 1.33038 35.9427 1.9123C36.5222 2.49422 36.8488 3.28278 36.8512 4.10574V27.8942C36.8488 28.7172 36.5222 29.5057 35.9427 30.0876C35.3632 30.6696 34.5779 30.9976 33.7583 31H3.09288C2.27333 30.9976 1.48804 30.6696 0.908526 30.0877C0.329017 29.5057 0.00239175 28.7172 0 27.8942V4.10574C0.00238734 3.28278 0.329011 2.49422 0.908522 1.9123C1.48803 1.33038 2.27333 1.0024 3.09288 1Z" fill="white"/>
<path fill-rule="evenodd" clip-rule="evenodd" d="M13.0019 13.869L12.4999 13.8536L12.4949 11.9206L12.4966 7.87815L10.5074 7.87755L6.24139 7.88083V24.1535V24.1762L12.4161 24.1473L12.5048 17.9374L15.0943 17.9339L24.3126 24.1387L33.0877 24.1751L32.9166 24.0217L20.8432 15.8318L31.843 7.87268L23.5759 7.87646L16.55 13.0409L15.4874 13.873L13.0019 13.869Z" fill="#111211"/>
</svg>
