<svg width="24" height="24" viewBox="0 0 24 24" fill="none" xmlns="http://www.w3.org/2000/svg">
<path d="M23.3826 17.7016L20.399 14.718C19.5764 13.8955 18.238 13.8955 17.4154 14.718L16.0593 16.0742C15.4361 16.6973 14.4221 16.6971 13.7992 16.0744L7.92108 10.1912C7.29647 9.56663 7.29638 8.55568 7.92108 7.93097C8.13952 7.71254 8.76676 7.0853 9.27723 6.57483C10.0962 5.75593 10.1076 4.42163 9.27643 3.59053L6.29367 0.617157C5.47111 -0.205359 4.13269 -0.205359 3.31233 0.615001C2.69845 1.22353 2.50045 1.41984 2.2252 1.6927C-0.741058 4.65891 -0.741058 9.4853 2.22506 12.4514L11.5388 21.77C14.512 24.7432 19.3242 24.7435 22.2976 21.77L23.3826 20.6851C24.2051 19.8625 24.2051 18.5241 23.3826 17.7016ZM4.30467 1.61166C4.57884 1.33749 5.02491 1.33744 5.29997 1.61241L8.28273 4.58578C8.55755 4.86061 8.55755 5.30541 8.28273 5.58029L7.78543 6.07754L3.80995 2.10206L4.30467 1.61166ZM12.5335 20.7756L3.2197 11.457C0.924789 9.16205 0.798648 5.55854 2.83176 3.11292L6.79571 7.07686C5.75414 8.2576 5.79755 10.0568 6.92635 11.1856L12.8043 17.0685C12.8043 17.0685 12.8044 17.0686 12.8045 17.0687C13.9321 18.1963 15.7312 18.2425 16.9134 17.1995L20.8774 21.1636C18.4396 23.1932 14.8442 23.0863 12.5335 20.7756ZM22.3881 19.6906L21.8908 20.1879L17.9127 16.2098L18.4099 15.7125C18.6842 15.4383 19.1303 15.4383 19.4045 15.7125L22.3881 18.6961C22.6623 18.9703 22.6623 19.4164 22.3881 19.6906Z" fill="white"/>
</svg>
