<svg width="320" height="244" viewBox="0 0 320 244" fill="none" xmlns="http://www.w3.org/2000/svg">
<path fill-rule="evenodd" clip-rule="evenodd" d="M104.934 192.065C104.393 191.461 103.724 190.985 102.976 190.671C102.229 190.357 101.421 190.214 100.611 190.252C99.8175 190.22 99.0275 190.371 98.3011 190.692C97.5748 191.013 96.9314 191.495 96.42 192.103C95.3832 193.969 94.8375 196.068 94.8343 198.203C94.831 200.338 95.3702 202.439 96.4012 204.308C96.9541 204.889 97.6189 205.353 98.3555 205.672C99.0922 205.99 99.8855 206.156 100.688 206.159C101.49 206.163 102.285 206.004 103.024 205.692C103.764 205.38 104.432 204.922 104.991 204.345C106.205 202.408 106.743 200.122 106.52 197.846C106.695 195.792 106.133 193.742 104.934 192.065ZM167.117 192.065C166.577 191.46 165.909 190.982 165.161 190.669C164.413 190.355 163.604 190.212 162.794 190.252C162.001 190.22 161.211 190.371 160.484 190.692C159.758 191.013 159.115 191.495 158.603 192.103C157.566 193.969 157.021 196.068 157.017 198.203C157.014 200.338 157.553 202.439 158.584 204.308C159.113 204.92 159.773 205.405 160.515 205.725C161.257 206.046 162.062 206.194 162.869 206.159C163.678 206.206 164.486 206.067 165.232 205.753C165.978 205.438 166.642 204.957 167.174 204.345C168.388 202.408 168.926 200.122 168.703 197.846C168.878 195.792 168.316 193.742 167.117 192.065ZM7.61914 172.76V223.556H312.381V172.76H7.61914ZM46.4128 191.083H37.6158V212.148H28.9698V191.083H20.1728V184.187H46.4128L46.4128 191.083ZM113.504 205.989C113.288 206.393 113.048 206.784 112.787 207.16C111.75 208.707 110.358 209.983 108.728 210.882C106.335 212.121 103.662 212.72 100.969 212.62C98.2861 212.708 95.6167 212.198 93.1541 211.128C91.3291 210.223 89.7733 208.855 88.6423 207.16C88.4535 206.896 88.2836 206.631 88.1137 206.348C86.7498 203.85 86.0845 201.031 86.1882 198.186C86.0187 194.694 87.0737 191.253 89.1709 188.457C89.4275 188.125 89.7049 187.809 90.0015 187.512C91.4263 186.194 93.1016 185.177 94.9276 184.522C96.7536 183.866 98.6929 183.585 100.63 183.696C102.583 183.574 104.541 183.843 106.389 184.489C108.237 185.135 109.937 186.143 111.39 187.456C111.705 187.771 112.002 188.106 112.277 188.457C114.31 191.187 115.331 194.54 115.166 197.941C115.27 200.718 114.7 203.48 113.504 205.989ZM175.688 205.989C175.478 206.397 175.238 206.788 174.97 207.16C173.94 208.706 172.555 209.983 170.93 210.882C168.531 212.124 165.852 212.722 163.153 212.62C160.469 212.708 157.8 212.198 155.337 211.128C153.514 210.228 151.964 208.858 150.844 207.16C150.656 206.896 150.486 206.631 150.316 206.348C148.945 203.852 148.274 201.033 148.371 198.186C148.202 194.694 149.257 191.253 151.354 188.457C151.617 188.124 151.901 187.809 152.204 187.512C153.624 186.193 155.296 185.175 157.119 184.519C158.942 183.864 160.879 183.584 162.813 183.696C164.766 183.572 166.725 183.841 168.573 184.487C170.421 185.132 172.121 186.142 173.573 187.456C173.889 187.771 174.185 188.106 174.46 188.457C176.493 191.187 177.514 194.54 177.349 197.941C177.453 200.718 176.883 203.48 175.688 205.989ZM240.4 212.148H218.295V184.187H226.922V205.252H240.4V212.148ZM299.525 207.028C299.507 207.076 299.482 207.121 299.45 207.16C299.311 207.448 299.153 207.725 298.978 207.992C297.963 209.527 296.518 210.73 294.825 211.449C292.681 212.293 290.388 212.691 288.085 212.62C283.347 212.62 280.044 211.713 278.212 209.881C277.424 209.083 276.767 208.165 276.268 207.16C275.61 205.826 275.219 204.375 275.116 202.891L283.328 202.381C283.409 203.481 283.787 204.539 284.423 205.441C284.877 206.007 285.461 206.456 286.124 206.749C286.788 207.041 287.513 207.17 288.236 207.123C289.257 207.186 290.268 206.885 291.087 206.272C291.386 206.026 291.629 205.718 291.798 205.369C291.967 205.02 292.06 204.639 292.069 204.251C292.064 203.877 291.977 203.509 291.814 203.172C291.651 202.836 291.416 202.54 291.125 202.305C289.782 201.446 288.268 200.891 286.689 200.68C283.763 200.199 280.99 199.041 278.59 197.298C277.807 196.637 277.182 195.808 276.76 194.873C276.339 193.938 276.132 192.921 276.155 191.895C276.155 190.692 276.461 189.509 277.042 188.457C277.142 188.229 277.269 188.013 277.419 187.815C278.336 186.456 279.638 185.403 281.157 184.792C283.354 183.978 285.689 183.606 288.029 183.696C290.894 183.516 293.745 184.215 296.203 185.699C297.198 186.407 297.996 187.356 298.525 188.457C299.05 189.545 299.388 190.714 299.525 191.914C299.542 191.956 299.549 192.001 299.544 192.046H299.525L291.408 192.519C291.31 191.469 290.825 190.492 290.049 189.779C289.227 189.155 288.209 188.847 287.179 188.91C286.372 188.849 285.569 189.076 284.914 189.553C284.677 189.735 284.485 189.969 284.354 190.238C284.223 190.507 284.156 190.803 284.159 191.102C284.161 191.338 284.219 191.57 284.327 191.78C284.435 191.99 284.591 192.172 284.782 192.311C285.66 192.855 286.645 193.203 287.67 193.331C290.463 193.837 293.187 194.667 295.788 195.806C297.24 196.489 298.475 197.562 299.355 198.904L299.525 199.244C300.157 200.409 300.482 201.716 300.469 203.042C300.475 204.427 300.152 205.793 299.525 207.028Z" fill="#E4002B"/>
<path fill-rule="evenodd" clip-rule="evenodd" d="M44.621 87.5888H70.4664C76.8622 87.5888 80.7775 86.0872 82.2121 83.0839C83.7058 78.9426 84.3715 74.5479 84.1712 70.1496C84.426 65.2856 83.6935 60.4203 82.0177 55.8474C80.583 52.7104 76.1453 51.1429 68.7047 51.1448H44.621V87.5888ZM7.61914 152.054V20.9688H75.3273C92.1991 20.9688 104.273 23.7775 111.549 29.395C118.728 35.0116 122.317 46.6377 122.316 64.2735C122.556 72.3016 121.51 80.3164 119.217 88.0134C116.966 94.1192 109.776 98.4847 97.6463 101.11V102.513C105.739 102.873 111.744 105.213 115.661 109.533C119.479 113.976 121.382 120.181 121.371 128.149V152.054H83.3551V134.582C83.5688 130.161 82.564 125.766 80.4504 121.878C78.3293 118.873 74.414 117.372 68.7046 117.373H44.621V152.054H7.61914ZM312.381 20.9688V152.054H275.962L278.313 55.4522L247.183 151.856L246.953 152.054H214.517L182.02 53.6921L184.724 151.856L184.922 152.054H148.506V20.9688H205.676L230.117 102.481L253.838 20.9688H312.381H312.381Z" fill="#005098"/>
</svg>
