<svg width="146" height="106" viewBox="0 0 146 106" fill="none" xmlns="http://www.w3.org/2000/svg">
<path d="M74.6459 56.0654C74.6822 56.3296 74.7015 56.5958 74.7036 56.8625C74.7036 58.4835 74.0566 60.0381 72.9051 61.1843C71.7536 62.3305 70.1918 62.9745 68.5632 62.9745C66.9347 62.9745 65.3729 62.3305 64.2214 61.1843C63.0698 60.0381 62.4229 58.4835 62.4229 56.8625C62.4248 56.5958 62.4441 56.3296 62.4805 56.0654H25.7452C25.7441 60.563 26.4587 65.0324 27.8623 69.3074L28.4718 71.046C30.4403 76.2544 33.4148 81.0285 37.2273 85.0986L38.5113 86.4185C41.8583 89.7058 45.7249 92.4239 49.9568 94.4641L51.6462 95.2277C56.5891 97.3406 61.8889 98.504 67.2662 98.6565L69.1144 98.6752C74.374 98.614 79.5768 97.5854 84.4605 95.641L86.1599 94.9201C90.5177 92.9592 94.5154 90.2867 97.9875 87.0131L97.9119 87.0639L99.2549 85.7697C103.2 81.7341 106.303 76.9603 108.384 71.7241L109.029 69.995C110.586 65.5144 111.38 60.8065 111.379 56.0654H74.6459ZM37.3027 68.9836C37.1562 68.9837 37.0129 68.9405 36.891 68.8594C36.7691 68.7784 36.6741 68.6632 36.6179 68.5285C36.5618 68.3937 36.5471 68.2454 36.5756 68.1023C36.6041 67.9592 36.6746 67.8277 36.7782 67.7245C36.8818 67.6213 37.0138 67.551 37.1575 67.5224C37.3013 67.4939 37.4503 67.5084 37.5857 67.5641C37.7212 67.6199 37.837 67.7143 37.9185 67.8356C38 67.9568 38.0436 68.0994 38.0437 68.2453C38.0438 68.3422 38.0247 68.4382 37.9875 68.5278C37.9503 68.6173 37.8957 68.6987 37.8269 68.7673C37.7581 68.8358 37.6764 68.8902 37.5864 68.9273C37.4965 68.9645 37.4001 68.9836 37.3027 68.9836ZM44.6975 80.4817C44.5509 80.4818 44.4076 80.4387 44.2856 80.3577C44.1636 80.2768 44.0685 80.1616 44.0123 80.0269C43.9561 79.8921 43.9413 79.7438 43.9698 79.6007C43.9982 79.4575 44.0687 79.326 44.1723 79.2227C44.2759 79.1195 44.4079 79.0491 44.5516 79.0205C44.6954 78.9919 44.8444 79.0064 44.9799 79.0621C45.1154 79.1179 45.2312 79.2123 45.3127 79.3336C45.3943 79.4548 45.4379 79.5974 45.438 79.7434C45.4381 79.939 45.3602 80.1267 45.2213 80.2651C45.0824 80.4036 44.894 80.4815 44.6975 80.4817ZM55.9331 87.8646C55.7865 87.8646 55.6433 87.8214 55.5215 87.7403C55.3996 87.6593 55.3047 87.5441 55.2486 87.4094C55.1925 87.2746 55.1778 87.1264 55.2064 86.9833C55.2349 86.8403 55.3055 86.7088 55.409 86.6057C55.5126 86.5025 55.6446 86.4323 55.7883 86.4038C55.932 86.3753 56.081 86.3898 56.2164 86.4456C56.3518 86.5014 56.4675 86.5958 56.549 86.7171C56.6304 86.8383 56.674 86.9808 56.674 87.1267C56.6741 87.2236 56.655 87.3195 56.6178 87.4091C56.5805 87.4986 56.526 87.58 56.4572 87.6485C56.3883 87.717 56.3066 87.7714 56.2167 87.8085C56.1268 87.8455 56.0304 87.8646 55.9331 87.8646ZM69.543 90.3329C69.3964 90.3331 69.2531 90.2901 69.1312 90.2092C69.0092 90.1283 68.9141 90.0132 68.8579 89.8785C68.8016 89.7438 68.7868 89.5955 68.8152 89.4524C68.8437 89.3093 68.9141 89.1778 69.0177 89.0746C69.1212 88.9714 69.2532 88.901 69.3969 88.8725C69.5406 88.8439 69.6896 88.8584 69.825 88.9142C69.9604 88.9699 70.0762 89.0644 70.1577 89.1856C70.2391 89.3069 70.2827 89.4495 70.2827 89.5953C70.2828 89.6921 70.2637 89.788 70.2266 89.8774C70.1895 89.9669 70.135 90.0481 70.0663 90.1166C69.9976 90.1851 69.9161 90.2395 69.8263 90.2766C69.7365 90.3137 69.6402 90.3328 69.543 90.3329ZM82.5973 87.061C82.4508 87.0611 82.3076 87.018 82.1857 86.9371C82.0638 86.8561 81.9688 86.7411 81.9126 86.6064C81.8564 86.4717 81.8417 86.3234 81.8701 86.1804C81.8986 86.0374 81.969 85.9059 82.0725 85.8027C82.176 85.6995 82.308 85.6292 82.4516 85.6006C82.5953 85.5721 82.7443 85.5865 82.8796 85.6422C83.015 85.6979 83.1308 85.7924 83.2123 85.9135C83.2938 86.0347 83.3373 86.1772 83.3375 86.3231C83.3374 86.5186 83.2594 86.706 83.1207 86.8444C82.9819 86.9827 82.7937 87.0606 82.5973 87.061ZM93.6944 79.2412C93.5479 79.2412 93.4047 79.1981 93.2829 79.1171C93.161 79.0362 93.0661 78.9211 93.01 78.7864C92.9539 78.6517 92.9391 78.5035 92.9677 78.3605C92.9962 78.2175 93.0667 78.0861 93.1703 77.983C93.2738 77.8798 93.4058 77.8096 93.5494 77.7811C93.6931 77.7527 93.842 77.7672 93.9773 77.823C94.1127 77.8788 94.2283 77.9733 94.3097 78.0945C94.3911 78.2158 94.4345 78.3583 94.4345 78.5041C94.4345 78.6995 94.3566 78.8869 94.2178 79.0252C94.079 79.1634 93.8907 79.2411 93.6944 79.2412ZM100.663 67.1844C100.516 67.1845 100.373 67.1414 100.251 67.0605C100.129 66.9795 100.034 66.8644 99.9777 66.7297C99.9215 66.595 99.9068 66.4467 99.9353 66.3037C99.9638 66.1606 100.034 66.0292 100.138 65.926C100.241 65.8228 100.373 65.7525 100.517 65.7239C100.661 65.6954 100.81 65.7099 100.945 65.7657C101.08 65.8215 101.196 65.9159 101.278 66.0372C101.359 66.1584 101.403 66.301 101.403 66.4468C101.403 66.6423 101.325 66.8298 101.186 66.9681C101.047 67.1064 100.859 67.1842 100.663 67.1844Z" fill="#1A171B"/>
<path d="M69.1389 99.4586H69.1297L67.2815 99.44C61.7996 99.2882 56.3965 98.103 51.3583 95.9472L49.6544 95.1774C45.3376 93.1001 41.3938 90.3294 37.9815 86.9764L36.6846 85.6435C32.793 81.4991 29.7595 76.6324 27.7574 71.3211L27.1421 69.5652C25.7098 65.2069 24.9803 60.6503 24.9807 56.0647V55.2805H63.4016L63.2854 56.1659C63.1897 56.8884 63.2439 57.6228 63.4447 58.3236C63.6456 59.0243 63.9888 59.6766 64.4532 60.2401C64.9175 60.8035 65.4931 61.266 66.1443 61.5991C66.7955 61.9321 67.5084 62.1286 68.239 62.1763C68.9695 62.224 69.7021 62.122 70.3914 61.8765C71.0808 61.631 71.7121 61.2472 72.2465 60.749C72.7808 60.2508 73.2067 59.6488 73.4978 58.9801C73.789 58.3115 73.9391 57.5905 73.939 56.8617C73.937 56.6284 73.9199 56.3954 73.8879 56.1642L73.7742 55.2805H112.191V56.0647C112.192 60.8929 111.383 65.6875 109.797 70.2503L109.146 71.9963C107.032 77.3373 103.869 82.2052 99.8432 86.3158L98.543 87.5695L98.5525 87.5819C95.0178 90.9171 90.9464 93.6388 86.5076 95.6338L84.7929 96.3618C79.8148 98.3476 74.5101 99.3976 69.1476 99.4586H69.1389ZM26.5642 56.8489C26.6415 61.0002 27.3393 65.1169 28.6349 69.0635L29.2389 70.7871C31.1663 75.8953 34.0845 80.5762 37.8272 84.5631L39.1009 85.8722C42.3822 89.0951 46.1735 91.7589 50.3232 93.7573L51.9955 94.5126C56.8425 96.5854 62.0401 97.7253 67.3134 97.872L69.1368 97.8902C74.2966 97.8306 79.4007 96.821 84.1913 94.9123L85.8745 94.1979C90.1169 92.2893 94.0108 89.6916 97.3967 86.511L97.3876 86.4999L98.7301 85.2053C102.6 81.2514 105.641 76.5705 107.675 71.4351L108.314 69.7213C109.753 65.577 110.527 61.233 110.607 56.8489H75.5151V56.8617C75.5151 58.6908 74.7851 60.4449 73.4858 61.7382C72.1865 63.0316 70.4242 63.7582 68.5867 63.7582C66.7492 63.7582 64.9869 63.0316 63.6876 61.7382C62.3883 60.4449 61.6583 58.6908 61.6583 56.8617V56.8489H26.5642ZM69.5666 91.1164C69.2643 91.1166 68.9686 91.0276 68.7171 90.8605C68.4656 90.6935 68.2695 90.4559 68.1537 90.1779C68.0378 89.8999 68.0074 89.594 68.0662 89.2987C68.1251 89.0035 68.2705 88.7323 68.4843 88.5194C68.698 88.3065 68.9703 88.1615 69.2669 88.1026C69.5634 88.0438 69.8708 88.0738 70.1502 88.1889C70.4296 88.304 70.6684 88.499 70.8364 88.7492C71.0045 88.9994 71.0942 89.2936 71.0942 89.5946C71.0938 89.9979 70.9328 90.3845 70.6464 90.6698C70.3601 90.9551 69.9718 91.1157 69.5666 91.1164ZM69.5666 89.548C69.5541 89.548 69.542 89.5529 69.5331 89.5616C69.5241 89.5703 69.5189 89.5821 69.5185 89.5946C69.5185 89.6459 69.614 89.647 69.614 89.5946C69.6137 89.5822 69.6087 89.5704 69.5998 89.5617C69.591 89.553 69.5791 89.5481 69.5666 89.548ZM55.9567 88.6481C55.6543 88.6482 55.3586 88.5591 55.1071 88.392C54.8556 88.2248 54.6596 87.9872 54.5437 87.7091C54.4279 87.4311 54.3975 87.1251 54.4564 86.8298C54.5153 86.5346 54.6608 86.2633 54.8746 86.0504C55.0883 85.8375 55.3607 85.6924 55.6573 85.6336C55.9538 85.5747 56.2613 85.6048 56.5407 85.7198C56.8201 85.8349 57.059 86.0299 57.2271 86.2801C57.3952 86.5303 57.485 86.8245 57.4851 87.1255C57.4848 87.5291 57.3237 87.916 57.0372 88.2014C56.7506 88.4868 56.3621 88.6475 55.9567 88.6481ZM55.9567 87.0797C55.9443 87.0796 55.9324 87.0843 55.9236 87.0929C55.9147 87.1015 55.9096 87.1132 55.9095 87.1255C55.9095 87.1776 56.004 87.1776 56.004 87.1255C56.0038 87.1132 55.9988 87.1015 55.9899 87.0929C55.981 87.0843 55.9691 87.0795 55.9567 87.0797ZM82.6206 87.8445C82.3183 87.8446 82.0228 87.7554 81.7714 87.5882C81.52 87.4211 81.3241 87.1835 81.2083 86.9055C81.0926 86.6276 81.0622 86.3216 81.1211 86.0265C81.18 85.7314 81.3255 85.4602 81.5392 85.2474C81.753 85.0346 82.0253 84.8896 82.3217 84.8308C82.6182 84.772 82.9256 84.802 83.2049 84.9171C83.4842 85.0321 83.723 85.227 83.8911 85.4772C84.0591 85.7273 84.1489 86.0214 84.149 86.3223C84.1486 86.7258 83.9874 87.1126 83.7009 87.3979C83.4144 87.6833 83.0259 87.8439 82.6206 87.8445ZM82.6206 86.2757C82.6081 86.2756 82.5961 86.2805 82.5873 86.2893C82.5784 86.298 82.5734 86.3099 82.5733 86.3223C82.5729 86.3744 82.6671 86.3748 82.6674 86.3223C82.6675 86.3162 82.6663 86.3101 82.6639 86.3045C82.6616 86.2988 82.6581 86.2937 82.6538 86.2893C82.6494 86.285 82.6442 86.2816 82.6386 86.2792C82.6329 86.2769 82.6268 86.2757 82.6206 86.2757ZM44.7207 81.2652C44.4183 81.2653 44.1227 81.1761 43.8712 81.0089C43.6198 80.8417 43.4238 80.604 43.308 80.326C43.1922 80.0479 43.1619 79.7419 43.2208 79.4467C43.2797 79.1515 43.4253 78.8803 43.639 78.6674C43.8528 78.4545 44.1252 78.3095 44.4217 78.2506C44.7183 78.1918 45.0257 78.2219 45.3051 78.337C45.5845 78.452 45.8234 78.647 45.9915 78.8972C46.1596 79.1474 46.2494 79.4416 46.2495 79.7426C46.2492 80.1462 46.088 80.5332 45.8014 80.8186C45.5148 81.104 45.1261 81.2647 44.7207 81.2652ZM44.7207 79.6968C44.7083 79.6966 44.6964 79.7014 44.6875 79.71C44.6786 79.7186 44.6736 79.7303 44.6734 79.7426C44.6734 79.7951 44.7676 79.7955 44.768 79.7426C44.768 79.7365 44.7667 79.7305 44.7643 79.7249C44.7619 79.7192 44.7584 79.7142 44.754 79.7099C44.7496 79.7056 44.7444 79.7023 44.7387 79.7C44.7329 79.6978 44.7268 79.6967 44.7207 79.6968ZM93.718 80.0243C93.4157 80.0243 93.1202 79.9352 92.8688 79.7681C92.6174 79.601 92.4214 79.3634 92.3057 79.0854C92.19 78.8074 92.1596 78.5015 92.2186 78.2064C92.2775 77.9113 92.423 77.6402 92.6367 77.4274C92.8505 77.2145 93.1228 77.0696 93.4193 77.0109C93.7158 76.9521 94.0231 76.9822 94.3024 77.0974C94.5817 77.2125 94.8204 77.4075 94.9884 77.6577C95.1563 77.9079 95.246 78.202 95.246 78.5029C95.2454 78.9062 95.0843 79.2927 94.7979 79.5779C94.5115 79.8631 94.1231 80.0236 93.718 80.0243ZM93.718 78.4558C93.7054 78.4558 93.6934 78.4608 93.6844 78.4696C93.6755 78.4784 93.6704 78.4904 93.6704 78.5029C93.6704 78.555 93.7645 78.5554 93.7649 78.5029C93.765 78.4905 93.76 78.4786 93.7513 78.4697C93.7425 78.4609 93.7305 78.4559 93.718 78.4558ZM37.3265 69.7667C37.0241 69.7668 36.7285 69.6776 36.477 69.5104C36.2255 69.3432 36.0295 69.1056 35.9138 68.8275C35.798 68.5494 35.7676 68.2435 35.8266 67.9482C35.8855 67.653 36.031 67.3818 36.2448 67.1689C36.4585 66.956 36.7309 66.811 37.0275 66.7522C37.324 66.6934 37.6315 66.7234 37.9109 66.8385C38.1903 66.9536 38.4291 67.1485 38.5972 67.3988C38.7653 67.649 38.8551 67.9432 38.8553 68.2442C38.8549 68.6477 38.6938 69.0347 38.4072 69.3201C38.1206 69.6056 37.7319 69.7662 37.3265 69.7667ZM37.3265 68.1983C37.3141 68.1982 37.3023 68.203 37.2935 68.2116C37.2847 68.2202 37.2797 68.2319 37.2796 68.2442C37.2796 68.297 37.3734 68.297 37.3734 68.2442C37.3732 68.2319 37.3682 68.2202 37.3594 68.2116C37.3506 68.2031 37.3388 68.1983 37.3265 68.1983ZM100.686 67.9678C100.384 67.968 100.088 67.8789 99.8369 67.7117C99.5854 67.5446 99.3894 67.3071 99.2736 67.0291C99.1578 66.7511 99.1274 66.4451 99.1863 66.1499C99.2452 65.8548 99.3907 65.5836 99.6045 65.3707C99.8182 65.1579 100.091 65.0129 100.387 64.9541C100.684 64.8953 100.991 64.9254 101.27 65.0405C101.55 65.1556 101.788 65.3506 101.956 65.6008C102.124 65.851 102.214 66.1452 102.214 66.4461C102.214 66.8494 102.052 67.236 101.766 67.5212C101.48 67.8064 101.091 67.967 100.686 67.9678ZM100.686 66.3995C100.68 66.3994 100.674 66.4005 100.668 66.4028C100.662 66.405 100.657 66.4085 100.653 66.4128C100.648 66.4171 100.645 66.4223 100.642 66.428C100.64 66.4338 100.638 66.4399 100.639 66.4461C100.639 66.4973 100.732 66.4998 100.732 66.4461C100.732 66.4339 100.727 66.4222 100.719 66.4134C100.71 66.4047 100.699 66.3997 100.686 66.3995Z" fill="white"/>
<path d="M68.7416 63.9012C67.0567 63.9502 65.4209 63.3328 64.1922 62.1841C62.9636 61.0354 62.2421 59.449 62.1857 57.772C62.1857 54.3577 65.1907 54.3577 66.9862 54.3577C67.2464 54.3577 67.5152 54.3605 67.7907 54.363C68.3578 54.3688 68.9669 54.3688 69.5402 54.363C69.819 54.3605 70.092 54.3577 70.3575 54.3577C72.2053 54.3577 75.2978 54.3577 75.2978 57.772C75.2415 59.449 74.5199 61.0355 73.2912 62.1842C72.0625 63.3329 70.4266 63.9503 68.7416 63.9012ZM66.9862 55.9261C64.3643 55.9261 63.7614 56.2709 63.7614 57.772C63.8657 59.0154 64.4355 60.1744 65.3579 61.0192C66.2804 61.8639 67.4881 62.3328 68.7416 62.3328C69.995 62.3328 71.2027 61.8639 72.1252 61.0192C73.0477 60.1744 73.6175 59.0154 73.7217 57.772C73.7217 56.2887 73.0612 55.9261 70.3575 55.9261C70.0974 55.9261 69.8294 55.929 69.556 55.9314C68.9722 55.9372 68.3528 55.9372 67.7745 55.9314C67.5044 55.929 67.2414 55.9261 66.9862 55.9261Z" fill="white"/>
<path d="M57.1007 87.1172C57.1055 87.3382 57.0441 87.5556 56.9243 87.7417C56.8045 87.9278 56.6316 88.0742 56.4279 88.1621C56.2242 88.25 55.9987 88.2755 55.7803 88.2353C55.562 88.1951 55.3606 88.0911 55.2019 87.9365C55.0431 87.782 54.9343 87.5838 54.8892 87.3674C54.8441 87.1509 54.8648 86.926 54.9487 86.7214C55.0325 86.5167 55.1758 86.3415 55.3601 86.2182C55.5444 86.0949 55.7614 86.0291 55.9835 86.0291C56.2765 86.0261 56.5588 86.139 56.7683 86.343C56.9778 86.5471 57.0973 86.8255 57.1007 87.1172Z" fill="white"/>
<path d="M70.7096 89.5855C70.7144 89.8065 70.653 90.0239 70.5332 90.21C70.4133 90.3961 70.2405 90.5425 70.0368 90.6304C69.833 90.7183 69.6076 90.7438 69.3892 90.7036C69.1709 90.6634 68.9695 90.5594 68.8108 90.4048C68.652 90.2502 68.5432 90.0521 68.4981 89.8357C68.453 89.6192 68.4737 89.3943 68.5576 89.1896C68.6414 88.985 68.7846 88.8098 68.969 88.6865C69.1533 88.5632 69.3703 88.4974 69.5924 88.4974C69.8854 88.4943 70.1677 88.6072 70.3772 88.8113C70.5867 89.0153 70.7062 89.2938 70.7096 89.5855Z" fill="white"/>
<path d="M94.861 78.4937C94.8658 78.7147 94.8045 78.9322 94.6846 79.1183C94.5648 79.3045 94.392 79.4509 94.1882 79.5389C93.9845 79.6268 93.759 79.6524 93.5406 79.6123C93.3222 79.5721 93.1207 79.4681 92.9619 79.3136C92.8032 79.159 92.6942 78.9608 92.6491 78.7444C92.6039 78.5279 92.6246 78.303 92.7084 78.0982C92.7922 77.8935 92.9354 77.7183 93.1198 77.5949C93.3041 77.4715 93.5211 77.4056 93.7432 77.4056C94.0364 77.4025 94.3188 77.5153 94.5283 77.7194C94.7379 77.9234 94.8576 78.2019 94.861 78.4937Z" fill="white"/>
<path d="M101.829 66.4371C101.834 66.6581 101.773 66.8755 101.653 67.0616C101.533 67.2477 101.36 67.394 101.156 67.4819C100.953 67.5698 100.727 67.5953 100.509 67.5552C100.291 67.515 100.089 67.411 99.9304 67.2564C99.7717 67.1018 99.6628 66.9037 99.6177 66.6873C99.5726 66.4708 99.5933 66.2459 99.6772 66.0413C99.761 65.8366 99.9042 65.6614 100.089 65.5381C100.273 65.4148 100.49 65.349 100.712 65.3489C101.005 65.3458 101.287 65.4586 101.497 65.6627C101.706 65.8667 101.826 66.1453 101.829 66.4371Z" fill="white"/>
<path d="M36.9986 66.7548L27.9777 69.9136L28.2672 70.7327L37.2881 67.574L36.9986 66.7548Z" fill="white"/>
<path d="M43.8663 78.4872L36.5623 84.2795L37.067 84.9102L44.3711 79.1178L43.8663 78.4872Z" fill="white"/>
<path d="M54.8185 86.1263L49.8182 94.2405L50.5089 94.6622L55.5092 86.5481L54.8185 86.1263Z" fill="white"/>
<path d="M68.0897 89.4822L67.3931 98.6987L68.2459 98.7626L68.9425 89.5461L68.0897 89.4822Z" fill="white"/>
<path d="M81.9753 86.2793L81.1262 86.5471L84.0147 95.6215L84.8638 95.3538L81.9753 86.2793Z" fill="white"/>
<path d="M93.1876 78.818L92.5009 79.4006L98.7038 86.6451L99.3905 86.0625L93.1876 78.818Z" fill="white"/>
<path d="M100.257 66.9535L99.8345 67.7014L108.168 72.3698L108.591 71.6218L100.257 66.9535Z" fill="white"/>
<path d="M39.0826 68.0733C39.0554 67.7892 38.9601 67.5157 38.8046 67.2759C38.6491 67.036 38.4381 66.8369 38.1892 66.6951C37.9404 66.5533 37.661 66.473 37.3745 66.461C37.088 66.4491 36.8028 66.5057 36.5428 66.6263L28.0786 69.5984L28.6138 70.9062L35.5526 68.4685L35.5762 68.5366C35.6181 68.7964 35.7185 69.0433 35.8699 69.2589C35.8895 69.2947 35.9123 69.3287 35.938 69.3605C36.1664 69.6468 36.4787 69.8553 36.8315 69.957C37.1843 70.0588 37.5602 70.0487 37.907 69.9282C38.2539 69.8077 38.5544 69.5827 38.767 69.2845C38.9796 68.9863 39.0937 68.6297 39.0934 68.264C39.0934 68.2003 39.0898 68.1367 39.0826 68.0733Z" fill="white"/>
<path d="M46.2591 78.9562C46.0707 78.553 45.7371 78.2349 45.3244 78.0646C44.9117 77.8943 44.4498 77.8843 44.0301 78.0366C43.7855 78.1248 43.563 78.2647 43.3779 78.4467L36.4167 84.0869L37.3639 85.1387L43.0696 80.5139C43.0829 80.5297 43.0991 80.5499 43.1152 80.5701C43.2425 80.8005 43.4207 80.9992 43.6363 81.1511C43.667 81.1782 43.7 81.2026 43.7351 81.2238C44.0609 81.4269 44.4444 81.5187 44.8273 81.4852C45.2103 81.4518 45.5719 81.295 45.8572 81.0387C46.1426 80.7823 46.3362 80.4403 46.4088 80.0645C46.4813 79.6887 46.4288 79.2996 46.2591 78.9562Z" fill="white"/>
<path d="M57.2831 85.8516C57.0834 85.6467 56.8373 85.4924 56.5654 85.4018C56.2935 85.3112 56.0037 85.2869 55.7204 85.3309C55.437 85.3749 55.1685 85.486 54.9372 85.6548C54.706 85.8235 54.5188 86.0451 54.3914 86.3008L49.6469 93.8849L50.8857 94.5733L54.7743 88.3553C54.7918 88.3661 54.8142 88.3801 54.8358 88.3941C55.0314 88.5708 55.2648 88.7009 55.5182 88.7749C55.556 88.7907 55.5952 88.803 55.6352 88.8117C55.9933 88.8933 56.3681 88.8619 56.7075 88.7219C57.0469 88.582 57.3341 88.3403 57.5293 88.0305C57.7245 87.7208 57.818 87.3582 57.7969 86.9931C57.7757 86.628 57.6409 86.2786 57.4113 85.9932C57.3712 85.9437 57.3284 85.8964 57.2831 85.8516Z" fill="white"/>
<path d="M70.1169 87.8717C69.8446 87.7821 69.5547 87.7588 69.2716 87.8039C68.9884 87.8489 68.7202 87.961 68.4896 88.1307C68.259 88.3004 68.0728 88.5227 67.9464 88.779C67.8201 89.0352 67.7575 89.3179 67.7637 89.6033L67.0895 98.5125L68.5076 98.5514L69.0594 91.2477C69.0797 91.2494 69.1063 91.2514 69.1316 91.2539C69.3874 91.3201 69.6549 91.3278 69.9141 91.2766C69.9549 91.2733 69.9953 91.2661 70.0347 91.2551C70.3901 91.1624 70.7077 90.9618 70.9434 90.6812C71.1792 90.4007 71.3213 90.054 71.3501 89.6894C71.3789 89.3248 71.293 88.9603 71.1043 88.6465C70.9156 88.3327 70.6334 88.0851 70.2969 87.9382C70.2382 87.9128 70.1781 87.8906 70.1169 87.8717Z" fill="white"/>
<path d="M82.5084 84.5298C82.2222 84.5468 81.9443 84.6319 81.698 84.778C81.4517 84.9241 81.2442 85.1268 81.0929 85.3692C80.9416 85.6116 80.8509 85.8866 80.8284 86.1711C80.806 86.4555 80.8524 86.7413 80.9639 87.0042L83.6422 95.5315L84.9748 95.0462L82.7785 88.056C82.7976 88.0499 82.8232 88.0424 82.8473 88.035C83.1095 88.0025 83.361 87.9114 83.5829 87.7687C83.6196 87.7507 83.6544 87.7292 83.687 87.7046C83.9829 87.4878 84.2037 87.1847 84.3187 86.8373C84.4337 86.49 84.4372 86.1156 84.3288 85.7661C84.2203 85.4167 84.0053 85.1095 83.7135 84.8872C83.4217 84.6649 83.0677 84.5386 82.7005 84.5257C82.6364 84.5235 82.5723 84.5249 82.5084 84.5298Z" fill="white"/>
<path d="M92.9017 76.9639C92.645 77.091 92.4227 77.2776 92.2535 77.508C92.0843 77.7384 91.9731 78.0059 91.9292 78.2879C91.8854 78.5699 91.9102 78.8583 92.0015 79.1289C92.0928 79.3994 92.248 79.6442 92.4541 79.8426L98.2731 86.6448L99.3086 85.679L94.5371 80.1028C94.5525 80.0896 94.5732 80.073 94.5928 80.0565C94.8213 79.9246 95.0168 79.7427 95.1644 79.5246C95.1913 79.4939 95.2149 79.4606 95.2349 79.4251C95.4327 79.0964 95.5171 78.7125 95.4755 78.3317C95.4338 77.9508 95.2684 77.594 95.0042 77.3154C94.7401 77.0368 94.3918 76.8516 94.0122 76.7882C93.6327 76.7248 93.2428 76.7864 92.9017 76.9639Z" fill="white"/>
<path d="M99.3423 65.2411C99.1445 65.4476 98.9992 65.6983 98.9188 65.9722C98.8384 66.2461 98.8252 66.5352 98.8802 66.8152C98.9352 67.0953 99.0569 67.3581 99.235 67.5817C99.4132 67.8052 99.6426 67.983 99.904 68.1001L107.699 72.5291L108.343 71.2703L101.952 67.6404C101.962 67.6226 101.976 67.6 101.988 67.5781C102.158 67.3766 102.28 67.1394 102.345 66.8843C102.359 66.8464 102.37 66.8071 102.377 66.767C102.451 66.3911 102.399 66.0016 102.23 65.6576C102.06 65.3137 101.783 65.0342 101.44 64.8615C101.096 64.6888 100.705 64.6325 100.327 64.701C99.9484 64.7695 99.6027 64.9592 99.3423 65.2411Z" fill="white"/>
<path d="M128.461 8.7832H8.82458V55.5641H128.461V8.7832Z" fill="#FFDD00"/>
<path d="M32.8875 48.9123H26.7499L32.2972 33.0327H38.7078L44.3982 48.9123H38.2635L37.7337 46.9309H33.3576L32.8875 48.9123ZM36.7164 43.1593L36.0373 40.3599C35.8721 39.6876 35.763 38.9922 35.6573 38.3178H35.4498L34.3877 43.1593H36.7164Z" fill="#1A171B"/>
<path d="M47.5344 33.0327H53.4979L55.7009 41.3692H55.8448C55.9387 40.6613 56.0735 39.9593 56.2485 39.2668L58.0432 33.0327H63.9534L66.5734 48.9127H60.9672L60.1877 40.2154H60.0814C59.982 40.7473 59.855 41.2739 59.7011 41.7928L57.3939 48.9127H54.0032L51.9296 42.1926C51.7486 41.5463 51.6301 40.8842 51.5758 40.2154H51.3775C51.3368 40.848 51.3003 41.4996 51.2331 42.1299L50.5543 48.9127H44.9519L47.5344 33.0327Z" fill="#1A171B"/>
<path d="M68.4347 33.033H79.1574V37.3682H74.2676V38.888H78.7351V43.017H74.2676V44.5723H79.3265V48.9126H68.4347V33.033Z" fill="#1A171B"/>
<path d="M81.7544 33.0332H87.6597C93.0165 33.0332 97.1217 35.368 97.1217 41.2044C97.1217 45.9151 93.7737 48.9124 89.101 48.9124H81.7544V33.0332ZM87.5531 44.1522H87.9166C89.8407 44.1522 91.3239 43.2664 91.3239 41.1785C91.3239 38.951 90.0302 38.0036 87.9166 38.0036H87.5531V44.1522Z" fill="#1A171B"/>
<path d="M105.051 33.0327H99.2583V48.9127H105.051V33.0327Z" fill="#1A171B"/>
<path d="M112.434 48.9123H106.305L111.843 33.0327H118.258L123.946 48.9123H117.813L117.281 46.9309H112.902L112.434 48.9123ZM116.268 43.1593L115.591 40.3599C115.428 39.6876 115.32 38.9922 115.206 38.3178H114.999L113.938 43.1593H116.268Z" fill="#1A171B"/>
<path d="M98.821 28.1265C94.8995 24.0958 90.2043 20.8905 85.0142 18.701C79.8241 16.5116 74.2449 15.3825 68.6079 15.3809C62.9709 15.3794 57.3911 16.5053 52.1997 18.6919C47.0084 20.8784 42.3114 24.0811 38.3876 28.1096L36.3788 28.1051L37.3272 27.0864C41.3888 22.9167 46.2507 19.6019 51.6242 17.3387C56.9977 15.0755 62.7732 13.9101 68.608 13.9116C74.4427 13.9132 80.2176 15.0816 85.5899 17.3477C90.9622 19.6137 95.8224 22.9311 99.8818 27.1028L100.915 28.1265H98.821Z" fill="#1A171B"/>
<path d="M15.117 42.9346L15.4149 43.1687C16.4257 44.0364 17.6959 44.5475 19.0284 44.6227C19.5989 44.6227 20.507 44.3924 20.507 43.6713C20.507 42.9549 19.7487 42.8949 19.2189 42.7913L18.058 42.5757C15.7916 42.176 13.8869 40.8541 13.8869 38.3693C13.8869 34.5957 17.337 32.4875 20.8108 32.4875C22.5936 32.4702 24.3454 32.9524 25.866 33.8792L24.3011 37.9456C23.3271 37.2151 22.1529 36.7966 20.9344 36.7456C20.4232 36.7456 19.6881 36.9396 19.6881 37.5896C19.6881 38.174 20.4034 38.2603 20.8481 38.3693L22.1562 38.6621C24.6138 39.2089 26.3958 40.5196 26.3958 43.2092C26.3958 46.9998 22.922 48.8762 19.4766 48.8762C17.3466 48.8519 15.2493 48.3529 13.3384 47.4161L15.117 42.9346Z" fill="#1A171B"/>
<path d="M128.854 55.9561H8.42969V8.39087H128.854V55.9561ZM9.21749 55.1719H128.066V9.17504H9.21749V55.1719Z" fill="#1A171B"/>
<path d="M135.04 15.4608C134.335 15.4609 133.645 15.2526 133.058 14.8623C132.471 14.4721 132.014 13.9174 131.744 13.2685C131.474 12.6195 131.403 11.9054 131.54 11.2164C131.678 10.5274 132.018 9.89455 132.517 9.39781C133.016 8.90107 133.652 8.56278 134.344 8.4257C135.036 8.28863 135.753 8.35893 136.405 8.62772C137.057 8.8965 137.615 9.35171 138.007 9.93576C138.399 10.5198 138.608 11.2065 138.608 11.909C138.607 12.8506 138.231 13.7533 137.562 14.4192C136.893 15.085 135.986 15.4596 135.04 15.4608ZM135.04 8.91824C134.446 8.9182 133.865 9.09359 133.371 9.42222C132.877 9.75085 132.492 10.218 132.264 10.7645C132.037 11.311 131.977 11.9124 132.093 12.4926C132.209 13.0728 132.495 13.6057 132.915 14.024C133.336 14.4423 133.871 14.7271 134.454 14.8425C135.037 14.9579 135.641 14.8987 136.19 14.6723C136.739 14.4459 137.208 14.0625 137.539 13.5707C137.869 13.0788 138.045 12.5005 138.045 11.909C138.044 11.1161 137.727 10.3559 137.164 9.79525C136.6 9.23458 135.837 8.91918 135.04 8.91824Z" fill="#1A171B"/>
<path d="M133.671 13.8774V9.83691H135.033C135.287 9.82211 135.541 9.85924 135.779 9.94601C135.945 10.0284 136.077 10.165 136.153 10.3329C136.249 10.5314 136.297 10.7495 136.293 10.9697C136.303 11.236 136.229 11.4988 136.081 11.7205C136.005 11.8216 135.91 11.9068 135.801 11.9709C135.693 12.0351 135.572 12.077 135.447 12.0942C135.579 12.1891 135.695 12.3034 135.793 12.4333C135.933 12.6417 136.056 12.861 136.161 13.089L136.553 13.8774H135.778L135.31 12.9978C135.209 12.7934 135.095 12.5952 134.97 12.4043C134.92 12.3325 134.853 12.2744 134.775 12.2359C134.67 12.2 134.56 12.1846 134.449 12.1904H134.319V13.8774H133.671ZM134.319 11.5458H134.797C134.992 11.5579 135.188 11.5412 135.379 11.4963C135.457 11.4615 135.521 11.401 135.56 11.3248C135.607 11.2309 135.629 11.1266 135.625 11.0217C135.631 10.9058 135.601 10.7911 135.539 10.6926C135.511 10.6515 135.475 10.6164 135.433 10.5891C135.391 10.5619 135.345 10.5432 135.296 10.5341C135.138 10.5207 134.981 10.5161 134.823 10.52H134.319V11.5458Z" fill="#1A171B"/>
</svg>
