<svg width="496" height="96" viewBox="0 0 496 96" fill="none" xmlns="http://www.w3.org/2000/svg">
<path d="M486.462 40.7877C486.462 46.5065 484.777 52.0969 481.62 56.852C478.463 61.6071 473.976 65.3133 468.727 67.5019C463.477 69.6905 457.701 70.2633 452.128 69.1477C446.555 68.0322 441.436 65.2784 437.418 61.2347C433.4 57.1909 430.663 52.0389 429.555 46.43C428.446 40.821 429.015 35.0072 431.189 29.7236C433.363 24.4401 437.046 19.9241 441.77 16.7468C446.495 13.5695 452.049 11.8735 457.731 11.8734C461.504 11.873 465.24 12.6207 468.726 14.0736C472.212 15.5265 475.379 17.6563 478.047 20.3413C480.715 23.0263 482.831 26.2139 484.275 29.7221C485.719 33.2303 486.462 36.9904 486.462 40.7877Z" fill="#E1001A"/>
<path d="M478.083 34.7424H463.731V20.3052H451.728V34.7424H437.381V46.8264H451.728V61.266H463.731V46.8264H478.083V34.7424Z" fill="white"/>
<path d="M9.53857 50.2296L25.871 49.2014C26.0469 51.3905 26.7917 53.4946 28.0306 55.3027C28.9348 56.4344 30.0942 57.3326 31.4125 57.9229C32.7308 58.5131 34.17 58.7782 35.6106 58.6963C37.6458 58.8302 39.6597 58.2132 41.2757 56.9609C41.885 56.4827 42.3801 55.8732 42.7245 55.1771C43.0689 54.481 43.2539 53.7161 43.2659 52.9386C43.2504 52.1901 43.0727 51.454 42.7451 50.7818C42.4176 50.1097 41.9482 49.5176 41.3697 49.047C40.1056 47.9054 37.1749 46.8256 32.5776 45.8077C25.0484 44.1022 19.6797 41.8394 16.4716 39.0192C14.91 37.7018 13.6632 36.0473 12.8239 34.1785C11.9845 32.3098 11.5739 30.2748 11.6228 28.2246C11.6308 25.3231 12.4939 22.4893 14.1028 20.0817C15.9453 17.3736 18.5444 15.2763 21.5714 14.0551C24.8913 12.596 29.4445 11.8657 35.2308 11.864C42.3295 11.864 47.7419 13.1923 51.468 15.849C55.1961 18.5056 57.4135 22.7325 58.1202 28.5296L41.9362 29.482C41.7219 27.3832 40.7606 25.4333 39.2298 23.9919C37.5887 22.7617 35.5692 22.153 33.5263 22.2727C31.92 22.1547 30.3234 22.6081 29.0153 23.5537C28.5433 23.9201 28.1612 24.3908 27.8985 24.9293C27.6358 25.4678 27.4994 26.0598 27.5 26.6598C27.5147 27.1295 27.6348 27.5897 27.8514 28.006C28.068 28.4224 28.3754 28.7839 28.7505 29.0637C29.5595 29.8007 31.4796 30.4866 34.5109 31.1215C42.0141 32.7486 47.389 34.396 50.6355 36.0638C53.5302 37.4164 55.9863 39.5647 57.7207 42.261C59.2067 44.7594 59.9741 47.6242 59.9372 50.5359C59.9542 54.0632 58.9258 57.5155 56.9834 60.4516C54.9649 63.5174 52.0899 65.9132 48.7207 67.3372C44.4686 69.0321 39.9157 69.8296 35.3446 69.6802C25.8969 69.6802 19.3536 67.8497 15.7145 64.1889C12.0394 60.4454 9.84403 55.4833 9.53857 50.2296Z" fill="#1C1C1B"/>
<path d="M80.1042 48.59C80.1042 51.7944 80.7738 54.1717 82.113 55.7221C82.7316 56.4688 83.5094 57.0657 84.3887 57.4685C85.2679 57.8713 86.226 58.0696 87.1918 58.0487C88.064 58.055 88.9256 57.8565 89.7082 57.469C90.4908 57.0815 91.173 56.5158 91.7004 55.8166C92.9126 54.3289 93.5191 51.8063 93.5199 48.2488C93.5199 44.966 92.8874 42.5567 91.6224 41.0209C91.0819 40.3024 90.3831 39.7199 89.581 39.3194C88.7789 38.9189 87.8954 38.7113 87 38.7128C86.0575 38.6986 85.1242 38.9008 84.271 39.304C83.4177 39.7072 82.667 40.3007 82.0758 41.0396C80.7622 42.592 80.1049 45.1088 80.1041 48.59H80.1042ZM64.6426 84.1359V28.2245H79.0813V34.2125C80.563 32.1634 82.4298 30.4268 84.5757 29.1009C86.8798 27.894 89.4445 27.2786 92.0418 27.3095C94.4749 27.2029 96.8953 27.7168 99.0783 28.8035C101.261 29.8902 103.136 31.5144 104.529 33.5254C107.583 38.0475 109.128 43.4302 108.942 48.895C108.942 55.6336 107.338 60.7759 104.13 64.3219C102.61 66.0464 100.733 67.4159 98.6318 68.3347C96.5306 69.2535 94.2553 69.6994 91.9651 69.6414C89.7396 69.6703 87.5305 69.2556 85.465 68.4214C83.4852 67.5921 81.698 66.358 80.2167 64.7974V84.1359H64.6426Z" fill="#1C1C1B"/>
<path d="M142.334 44.8903C142.029 41.8913 141.227 39.743 139.928 38.4454C139.156 37.7485 138.25 37.219 137.266 36.8898C136.282 36.5606 135.242 36.4387 134.209 36.5318C133.176 36.6249 132.174 36.9309 131.264 37.4308C130.354 37.9307 129.556 38.6138 128.919 39.4376C127.845 41.0588 127.229 42.9437 127.138 44.8903H142.334ZM158.023 52.3298H127.1C127.198 54.3458 127.898 56.2851 129.108 57.8946C129.819 58.7502 130.713 59.4319 131.724 59.8881C132.735 60.3443 133.836 60.563 134.943 60.5276C136.457 60.5284 137.946 60.1342 139.264 59.3835C140.308 58.7046 141.221 57.8388 141.955 56.829L157.151 58.2382C155.226 61.8981 152.309 64.9335 148.739 66.9924C145.453 68.7589 140.742 69.642 134.604 69.6416C129.272 69.6416 125.078 68.8859 122.022 67.3746C118.854 65.7566 116.216 63.2535 114.425 60.1653C112.358 56.6565 111.313 52.6333 111.41 48.5553C111.41 42.2225 113.425 37.098 117.455 33.1819C121.485 29.2679 127.049 27.3105 134.148 27.3097C139.909 27.3097 144.457 28.1865 147.791 29.9402C151.056 31.6248 153.718 34.2907 155.408 37.5678C157.306 41.6282 158.203 46.0896 158.023 50.5734V52.3298Z" fill="#1C1C1B"/>
<path d="M192.134 52.8623L206.8 54.5393C206.068 57.4629 204.709 60.1902 202.82 62.5303C200.917 64.8237 198.493 66.6225 195.754 67.7751C192.271 69.1304 188.552 69.7651 184.82 69.6413C181.227 69.7211 177.64 69.3183 174.153 68.4437C171.45 67.7154 168.944 66.3869 166.819 64.5558C164.804 62.8073 163.167 60.6617 162.009 58.2516C160.727 55.2208 160.131 51.9409 160.265 48.6496C160.142 45.0613 160.869 41.4951 162.387 38.2459C163.452 36.1741 164.891 34.32 166.63 32.7782C168.258 31.2712 170.129 30.0534 172.163 29.1767C175.861 27.8147 179.784 27.1807 183.72 27.3094C190.29 27.3094 195.298 28.4908 198.747 30.8536C202.291 33.3567 204.858 37.0258 206.004 41.2287L191.489 43.1745C191.145 41.6179 190.267 40.2333 189.008 39.2642C187.577 38.321 185.884 37.8606 184.176 37.9496C183.003 37.9105 181.837 38.1387 180.764 38.6171C179.691 39.0954 178.74 39.8116 177.981 40.712C176.401 42.5507 175.612 45.3352 175.612 49.0653C175.612 52.393 176.395 54.9189 177.96 56.6431C178.712 57.4859 179.637 58.1541 180.671 58.6012C181.705 59.0484 182.823 59.2638 183.948 59.2325C185.773 59.2947 187.566 58.7442 189.045 57.6677C190.549 56.4306 191.629 54.7499 192.134 52.8623" fill="#1C1C1B"/>
<path d="M211.467 28.2241H226.891V68.7273H211.467V28.2241ZM211.467 12.8159H226.891V23.3802H211.467V12.8159Z" fill="#1C1C1B"/>
<path d="M261.19 49.5074C259.07 50.268 256.859 50.9419 254.559 51.5291C251.427 52.3681 249.444 53.1943 248.61 54.0077C248.206 54.3783 247.883 54.8294 247.661 55.3324C247.439 55.8355 247.324 56.3794 247.322 56.9298C247.32 57.4801 247.432 58.0248 247.651 58.5292C247.869 59.0337 248.19 59.4869 248.592 59.86C249.646 60.7059 250.979 61.121 252.324 61.0227C254.003 61.0323 255.656 60.5988 257.117 59.7654C258.443 59.0769 259.537 58.0093 260.262 56.6967C260.936 55.222 261.254 53.6079 261.19 51.986L261.19 49.5074ZM247.814 41.3457L233.072 39.7821C233.461 37.6007 234.279 35.5196 235.478 33.6609C236.678 32.0426 238.226 30.7185 240.006 29.788C241.841 28.8648 243.812 28.2464 245.843 27.9568C248.498 27.5116 251.185 27.295 253.876 27.3094C257.606 27.2408 261.334 27.5028 265.018 28.0924C267.608 28.5119 270.033 29.6398 272.028 31.3528C273.462 32.6782 274.532 34.3529 275.135 36.2154C275.861 38.1355 276.246 40.1691 276.273 42.2234V60.109C276.237 61.611 276.358 63.1127 276.633 64.5894C277.004 66.023 277.531 67.4108 278.205 68.7275H263.729C263.28 67.9692 262.9 67.1712 262.594 66.3435C262.352 65.5007 262.174 64.6404 262.063 63.7703C260.329 65.5302 258.285 66.9521 256.037 67.9644C253.005 69.1382 249.774 69.7077 246.526 69.6413C241.726 69.6413 238.081 68.5229 235.592 66.2862C234.402 65.269 233.451 63.9997 232.806 62.5691C232.161 61.1386 231.838 59.5822 231.86 58.0113C231.754 55.2276 232.717 52.5097 234.55 50.4224C236.344 48.438 239.653 46.9628 244.479 45.9968C250.264 44.8278 254.015 44.0082 255.733 43.5381C257.584 43.0226 259.406 42.4046 261.19 41.6869C261.341 40.2487 260.918 38.8092 260.015 37.6845C258.83 36.7953 257.355 36.3869 255.885 36.5404C253.915 36.4101 251.948 36.8324 250.202 37.7604C249.032 38.6552 248.192 39.9167 247.814 41.3457" fill="#1C1C1B"/>
<path d="M298.526 12.8159H283.063V68.7273H298.526V12.8159Z" fill="#1C1C1B"/>
<path d="M305.957 28.2241H321.38V68.7273H305.957V28.2241ZM305.957 12.8159H321.38V23.3802H305.957V12.8159Z" fill="#1C1C1B"/>
<path d="M325.516 57.4754L340.826 56.0276C341.271 57.5887 342.2 58.9658 343.478 59.9578C344.839 60.807 346.426 61.2182 348.026 61.1367C349.732 61.2438 351.426 60.7756 352.839 59.8059C353.245 59.5347 353.578 59.1668 353.809 58.7349C354.04 58.303 354.162 57.8204 354.163 57.3298C354.158 56.7739 353.99 56.232 353.68 55.7717C353.37 55.3115 352.933 54.9532 352.422 54.7416C350.274 53.9706 348.05 53.4339 345.788 53.1406C342.003 52.5839 338.27 51.7116 334.629 50.5326C332.523 49.715 330.694 48.3065 329.359 46.4742C327.945 44.6026 327.193 42.3094 327.221 39.9583C327.164 37.4577 327.982 35.0166 329.532 33.0615C331.204 31.0412 333.413 29.5415 335.9 28.7379C339.424 27.6696 343.097 27.1873 346.775 27.31C350.352 27.1687 353.93 27.5401 357.403 28.413C359.56 29.073 361.524 30.2519 363.126 31.8477C364.814 33.6587 366.11 35.8018 366.935 38.1419L352.308 39.5898C352.029 38.4422 351.358 37.4296 350.413 36.729C349.102 35.888 347.571 35.4629 346.017 35.509C344.681 35.3998 343.345 35.7267 342.209 36.4414C341.844 36.6957 341.545 37.0344 341.337 37.4291C341.129 37.8238 341.019 38.263 341.015 38.7096C341.015 39.1936 341.159 39.6664 341.429 40.0667C341.699 40.4669 342.083 40.7762 342.53 40.9542C344.655 41.7154 346.874 42.1775 349.124 42.3273C353.028 42.6368 356.875 43.4562 360.568 44.7648C362.874 45.6524 364.87 47.2016 366.309 49.2204C367.613 51.0815 368.308 53.3057 368.298 55.5832C368.27 58.0138 367.54 60.3838 366.196 62.4039C364.568 64.7989 362.255 66.639 359.564 67.68C355.622 69.1473 351.43 69.8141 347.23 69.642C339.877 69.642 334.64 68.5876 331.521 66.4787C328.418 64.3925 326.259 61.1564 325.516 57.4755" fill="#1C1C1B"/>
<path d="M391.267 12.8162V28.2244H399.755V39.5892H391.267V53.9417C391.173 55.1057 391.341 56.276 391.76 57.3652C392.041 57.8056 392.438 58.1593 392.906 58.3873C393.375 58.6153 393.896 58.7088 394.414 58.6575C396.045 58.5621 397.653 58.23 399.189 57.6715L400.324 68.3839C396.818 69.187 393.236 69.6085 389.64 69.6413C385.796 69.6413 382.967 69.1463 381.151 68.1561C379.329 67.165 377.904 65.5707 377.116 63.6433C376.244 61.6253 375.807 58.3566 375.807 53.8372V39.5892H370.122V28.2244H375.807V20.7886L391.267 12.8162Z" fill="#1C1C1B"/>
</svg>
