<svg width="104" height="64" viewBox="0 0 104 64" fill="none" xmlns="http://www.w3.org/2000/svg">
<path d="M96.0832 35.8106H8.38379V45.6695H96.0832V35.8106Z" fill="#1C1C1B"/>
<path d="M78.2475 37.2131L80.4292 39.4621L82.5636 37.2131H85.5577L81.842 40.5946L85.8573 44.2669H82.4532L80.0938 41.8051L77.7457 44.2669H74.6514L78.6428 40.5946L74.9265 37.2131H78.2475Z" fill="#FFD300"/>
<path d="M50.9969 37.2131L53.5489 42.4508L56.2476 37.2131H59.9994V44.2669H57.6256V38.5214H57.6011L54.7367 44.2669H52.1492L49.2713 38.5214H49.2484V44.2669H47.1152V37.2131H50.9969Z" fill="#FFD300"/>
<path d="M45.2354 37.2131V38.6602H41.9022V44.2669H39.386V38.6602H36.0547V37.2131H45.2354Z" fill="#FFD300"/>
<path d="M23.9514 37.2131V38.7189H19.4573V40.1834H23.7004V41.6299H19.4573V44.2669H16.9414V37.2131H23.9514Z" fill="#FFD300"/>
<path d="M73.8397 44.2669L69.345 37.2131H66.339L61.748 44.2669H64.3349L67.7277 38.5819L69.5187 41.6729H67.7277L67.1367 42.8563H70.2048L71.0223 44.2669H73.8397Z" fill="#FFD300"/>
<path d="M28.4956 37.2131L23.9043 44.2669H26.4933L29.8839 38.5819L31.6768 41.6729H29.9228L29.3305 42.8563H32.3629L33.1792 44.2669H35.9972L31.5019 37.2131H28.4956Z" fill="#FFD300"/>
<path d="M8.78162 28.6701C9.96392 29.2872 11.2821 29.6088 12.6202 29.6067C13.7245 29.6067 14.9955 29.3915 14.9955 28.4064C14.9955 26.1145 8.41332 27.4254 8.41332 22.7499C8.41332 19.6578 11.3116 18.8647 13.931 18.8647C15.2838 18.8571 16.6297 19.0568 17.9202 19.4568L17.5947 22.2146C16.5263 21.7464 15.3742 21.4914 14.205 21.4644C13.3259 21.4644 11.9674 21.5226 11.9674 22.6447C11.9674 24.6711 18.5842 23.6219 18.5842 28.1145C18.5842 31.4464 15.5197 32.2073 12.6202 32.2073C11.1847 32.2037 9.75751 31.9935 8.38379 31.5834L8.78162 28.6701Z" fill="#1C1C1B"/>
<path d="M30.459 19.1124H19.4961V21.7215H23.2402V31.9609H26.7167V21.7215H30.459V19.1124Z" fill="#1C1C1B"/>
<path d="M92.0605 19.1124L89.5355 24.264L86.9758 19.1124H82.9746L87.7982 27.1185V31.9609H91.276V27.1185L96.062 19.1124H92.0605Z" fill="#1C1C1B"/>
<path d="M45.4512 19.1124V31.9609H48.7987V25.0359L54.4763 31.9609H57.3209V30.0271L48.3129 19.1124H45.4512Z" fill="#1C1C1B"/>
<path d="M57.3203 25.6184V19.1124H51.9932L57.3203 25.6184Z" fill="#1C1C1B"/>
<path d="M75.4359 26.7614H80.9208V24.1993H75.4359V21.6381H81.4635V19.1124H71.8691V31.9609H81.6696V29.3979H75.4359V26.7614Z" fill="#1C1C1B"/>
<path d="M64.0609 19.1124H60.4941V31.9609H69.7678V29.3145H64.0609V19.1124Z" fill="#1C1C1B"/>
<path d="M39.8764 31.9609H43.5381L38.6826 19.1125H34.6438L29.8584 31.9609H33.2532L34.1383 29.393H39.0235L39.8764 31.9609ZM34.935 26.9641L36.6279 21.8068L38.2553 26.9641H34.935Z" fill="#1C1C1B"/>
<path d="M94.0553 29.4092C94.2277 29.4066 94.3989 29.438 94.5589 29.5013C94.7189 29.5646 94.8644 29.6587 94.9871 29.778C95.1098 29.8973 95.2071 30.0395 95.2734 30.1963C95.3397 30.353 95.3736 30.5212 95.3731 30.691C95.3727 30.8607 95.3379 31.0287 95.2708 31.1852C95.2038 31.3416 95.1057 31.4833 94.9824 31.602C94.8591 31.7207 94.7131 31.814 94.5528 31.8766C94.3924 31.9391 94.2211 31.9696 94.0487 31.9662C93.8753 31.9706 93.7028 31.9409 93.5413 31.8786C93.3798 31.8164 93.2326 31.7229 93.1083 31.6038C92.9841 31.4846 92.8854 31.3421 92.818 31.1848C92.7505 31.0275 92.7158 30.8584 92.7158 30.6877C92.7158 30.5169 92.7505 30.3479 92.818 30.1905C92.8854 30.0332 92.9841 29.8907 93.1083 29.7716C93.2326 29.6524 93.3798 29.559 93.5413 29.4967C93.7028 29.4345 93.8753 29.4047 94.0487 29.4092H94.0553ZM94.0403 29.6652C93.7717 29.6753 93.5177 29.7879 93.332 29.9793C93.1463 30.1706 93.0435 30.4256 93.0455 30.6902C93.0474 30.9549 93.1539 31.2084 93.3424 31.397C93.5309 31.5857 93.7866 31.6947 94.0553 31.701C94.1881 31.7008 94.3195 31.6743 94.4417 31.623C94.5638 31.5717 94.6743 31.4968 94.7665 31.4026C94.8586 31.3085 94.9306 31.197 94.9781 31.0749C95.0256 30.9528 95.0476 30.8225 95.0429 30.6918C95.0475 30.5597 95.0253 30.4281 94.9776 30.3047C94.9298 30.1812 94.8575 30.0683 94.7649 29.9727C94.6723 29.8771 94.5613 29.8007 94.4383 29.7479C94.3153 29.695 94.1828 29.6669 94.0487 29.6652H94.0403ZM93.8421 31.3433H93.5441V30.0697C93.7083 30.0446 93.8741 30.0315 94.0403 30.0306C94.1949 30.0138 94.3507 30.0498 94.4816 30.1326C94.5252 30.1634 94.5603 30.2044 94.5839 30.2519C94.6074 30.2993 94.6187 30.3518 94.6166 30.4046C94.612 30.4773 94.5829 30.5465 94.5339 30.6011C94.4849 30.6558 94.4188 30.6927 94.346 30.7062V30.7224C94.475 30.7626 94.5359 30.862 94.5753 31.0334C94.5917 31.1407 94.6239 31.2451 94.6709 31.3433H94.3556C94.3052 31.2458 94.2706 31.1413 94.2529 31.0334C94.229 30.9002 94.1508 30.8399 93.9836 30.8399H93.8421V31.3433ZM93.851 30.6295H93.9919C94.1598 30.6295 94.2941 30.5742 94.2941 30.4442C94.2941 30.3258 94.2051 30.2487 94.0176 30.2487C93.9616 30.2473 93.9057 30.2527 93.851 30.2646V30.6295Z" fill="#1C1C1B"/>
<path d="M86.9517 42.6959C87.0576 42.6943 87.1628 42.7135 87.2611 42.7524C87.3594 42.7913 87.4489 42.8491 87.5242 42.9224C87.5996 42.9957 87.6594 43.083 87.7002 43.1793C87.7409 43.2756 87.7617 43.3789 87.7615 43.4832C87.7613 43.5875 87.7399 43.6907 87.6988 43.7868C87.6576 43.8829 87.5974 43.9699 87.5217 44.0429C87.446 44.1158 87.3563 44.1732 87.2578 44.2117C87.1593 44.2501 87.0541 44.2689 86.9482 44.2669C86.8416 44.2697 86.7356 44.2514 86.6363 44.2132C86.537 44.175 86.4466 44.1175 86.3702 44.0443C86.2938 43.9711 86.2331 43.8836 86.1917 43.7869C86.1503 43.6902 86.1289 43.5863 86.1289 43.4814C86.1289 43.3764 86.1503 43.2725 86.1917 43.1759C86.2331 43.0792 86.2938 42.9916 86.3702 42.9184C86.4466 42.8452 86.537 42.7878 86.6363 42.7496C86.7356 42.7113 86.8416 42.6931 86.9482 42.6959H86.9517ZM86.9428 42.8529C86.7777 42.8591 86.6215 42.9284 86.5074 43.046C86.3933 43.1636 86.3301 43.3203 86.3313 43.483C86.3324 43.6457 86.3978 43.8015 86.5136 43.9175C86.6295 44.0336 86.7866 44.1007 86.9517 44.1046C87.0333 44.1044 87.1141 44.088 87.1891 44.0565C87.2642 44.0249 87.3321 43.9789 87.3887 43.921C87.4454 43.8632 87.4896 43.7947 87.5189 43.7197C87.5481 43.6447 87.5618 43.5646 87.5591 43.4843C87.5619 43.4031 87.5483 43.3222 87.519 43.2463C87.4897 43.1704 87.4453 43.101 87.3884 43.0422C87.3315 42.9834 87.2632 42.9363 87.1877 42.9038C87.1121 42.8713 87.0306 42.854 86.9482 42.8529H86.9428ZM86.821 43.8841H86.6376V43.1015C86.7386 43.0864 86.8406 43.0783 86.9428 43.0775C87.0378 43.0671 87.1335 43.0893 87.2139 43.1403C87.2407 43.1593 87.2624 43.1846 87.2769 43.2138C87.2913 43.2431 87.2982 43.2754 87.2969 43.3079C87.294 43.3526 87.2762 43.395 87.2461 43.4285C87.2161 43.4621 87.1755 43.4848 87.1309 43.4931V43.5025C87.2097 43.5272 87.2473 43.589 87.2712 43.6942C87.2815 43.76 87.3014 43.824 87.3303 43.8841H87.1363C87.1054 43.8244 87.0843 43.7604 87.0736 43.6942C87.0586 43.6119 87.0109 43.5749 86.9075 43.5749H86.821V43.8841ZM86.8263 43.4455H86.9129C87.0162 43.4455 87.0986 43.4114 87.0986 43.332C87.0986 43.2591 87.0443 43.2115 86.929 43.2115C86.8945 43.2105 86.86 43.2139 86.8263 43.2215V43.4455Z" fill="#FFD300"/>
</svg>
